<?xml version="1.0" encoding="utf-8"?>
<svg viewBox="0 0 500 500" xmlns="http://www.w3.org/2000/svg">
  <title>logo</title>
  <path d="M 0 435.529 C 0 471.139 28.865 500 64.471 500 L 435.527 500 C 471.139 500 500 471.135 500 435.529 L 500 64.473 C 500 28.861 471.135 0 435.529 0 L 64.473 0 C 28.861 0 0 28.865 0 64.471 L 0 435.527 Z" fill="#563D7C" style=""/>
  <path d="M 207.34 221.168 L 207.34 150.361 L 269.666 150.361 C 275.604 150.361 281.326 150.855 286.838 151.846 C 292.35 152.834 297.227 154.6 301.467 157.145 C 305.705 159.689 309.098 163.223 311.643 167.744 C 314.186 172.268 315.459 178.063 315.459 185.127 C 315.459 197.848 311.643 207.035 304.01 212.688 C 296.379 218.342 286.627 221.168 274.754 221.168 L 207.34 221.168 Z M 140.772 98.633 L 140.772 401.367 L 287.475 401.367 C 301.043 401.367 314.258 399.672 327.119 396.279 C 339.981 392.887 351.428 387.658 361.463 380.592 C 371.496 373.525 379.482 364.408 385.418 353.244 C 391.356 342.078 394.322 328.863 394.322 313.6 C 394.322 294.66 389.729 278.479 380.543 265.053 C 371.356 251.625 357.434 242.227 338.777 236.855 C 352.346 230.355 362.594 222.016 369.52 211.84 C 376.443 201.664 379.906 188.945 379.906 173.68 C 379.906 159.547 377.574 147.676 372.91 138.064 C 368.246 128.455 361.674 120.752 353.193 114.957 C 344.715 109.162 334.539 104.992 322.666 102.449 C 310.795 99.904 297.65 98.633 283.234 98.633 L 140.772 98.633 Z M 207.34 349.639 L 207.34 266.535 L 279.842 266.535 C 294.258 266.535 305.848 269.856 314.611 276.5 C 323.373 283.143 327.756 294.236 327.756 309.783 C 327.756 317.699 326.412 324.199 323.727 329.287 C 321.041 334.375 317.438 338.404 312.914 341.371 C 308.393 344.34 303.162 346.459 297.227 347.732 C 291.289 349.002 285.072 349.639 278.57 349.639 L 207.34 349.639 Z" fill="#FFF" style=""/>
</svg>