<?xml version="1.0" encoding="utf-8"?>
<svg viewBox="0 0 500 500" xmlns="http://www.w3.org/2000/svg">
  <title>logo</title>
  <rect x="26.512" y="132.618" width="440.86" height="228.818" style="fill: rgb(255, 255, 255);"/>
  <path d="M 134.063 196.752 C 129.732 193.516 125.391 191.897 121.06 191.897 L 101.596 191.897 L 101.596 308.493 L 121.071 308.493 C 125.402 308.493 129.743 306.875 134.074 303.638 C 138.404 300.402 140.569 295.547 140.569 289.063 L 140.569 211.328 C 140.558 204.855 138.382 199.989 134.063 196.752 Z M 451.004 0 L 48.996 0 C 21.987 0 0.067 21.864 0 48.884 L 0 451.116 C 0.067 478.136 21.987 500 48.996 500 L 451.004 500 C 478.025 500 499.933 478.136 500 451.116 L 500 48.884 C 499.933 21.864 478.013 0 451.004 0 Z M 172.098 289.275 C 172.098 310.268 159.141 342.076 118.125 342.009 L 66.339 342.009 L 66.339 157.344 L 119.219 157.344 C 158.772 157.344 172.076 189.107 172.087 210.112 Z M 284.464 190.324 L 225 190.324 L 225 233.203 L 261.35 233.203 L 261.35 266.205 L 225 266.205 L 225 309.074 L 284.475 309.074 L 284.475 342.076 L 215.078 342.076 C 202.623 342.4 192.266 332.556 191.953 320.1 L 191.953 180.469 C 191.652 168.025 201.507 157.69 213.951 157.377 L 284.475 157.377 Z M 400.134 318.996 C 385.402 353.315 359.007 346.484 347.188 318.996 L 304.185 157.388 L 340.536 157.388 L 373.694 284.308 L 406.696 157.388 L 443.058 157.388 Z" style=""/>
</svg>