<?xml version="1.0" encoding="utf-8"?>
<svg viewBox="0 0 500 500" xmlns="http://www.w3.org/2000/svg">
  <path fill="#fff" d="M 0 0 L 500 0 L 500 500 L 0 500 Z" style=""/>
  <path d="M 251.494 171.528 C 254.796 171.683 257.948 172.944 260.446 175.107 C 263.849 178.329 264.741 183.701 263.131 187.999 C 256.869 200.889 241.977 209.498 231.801 212.346 C 225.713 213.778 218.017 213.778 212.466 211.63 C 209.778 213.241 207.511 218.447 204.23 216.284 C 199.48 212.574 203.592 206.769 200.85 202.65 C 200.284 201.802 198.86 201.74 198.144 200.352 C 194.383 192.116 199.039 184.238 204.23 177.974 C 212.883 168.319 237.71 157.562 251.494 171.528 Z M 222.67 177.971 C 217.835 178.866 212.375 180.97 209.423 184.417 C 206.468 187.862 204.59 191.221 206.38 194.801 C 212.647 190.147 215.69 183.701 222.673 179.764 C 222.67 179.045 223.744 178.508 222.67 177.971 Z M 251.855 179.764 C 239.5 178.687 230.19 187.999 221.417 196.948 C 220.88 198.38 217.659 199.991 220.164 201.602 C 231.982 202.676 243.261 199.278 251.855 191.397 C 254.363 189.071 256.148 186.028 254.9 182.804 C 254.363 181.553 253.1 180.3 251.855 179.764 Z M 358.91 233.113 C 364.64 247.079 369.472 269.097 358.91 282.526 C 356.046 285.747 351.034 288.717 347.813 286.284 C 335.995 276.798 330.986 263.19 323.645 251.014 C 322.571 250.477 322.571 251.912 322.034 252.449 C 319.349 264.801 324.361 280.915 315.949 290.58 C 312.727 291.117 309.713 289.459 308.608 286.284 C 304.489 273.574 308.782 260.324 309.855 247.614 C 312.364 241.168 313.438 233.65 318.989 228.815 C 327.941 232.395 332.236 242.423 337.424 249.764 C 341.188 255.312 344.228 261.579 348.524 266.591 C 352.282 264.98 350.433 260.067 350.316 257.102 C 348.879 245.466 345.657 234.724 342.612 223.625 C 342.438 220.761 340.827 215.926 343.865 214.136 C 351.932 217.718 355.327 226.13 358.91 233.113 Z M 304.844 228.815 C 304.844 231.503 302.696 234.859 300.901 235.261 C 283.716 237.946 264.56 236.335 248.449 241.705 C 247.912 243.673 250.239 244.031 251.492 244.568 C 265.273 246.716 279.779 247.253 293.207 250.656 C 300.307 252.459 302.878 260.863 303.415 267.844 C 303.744 273.348 301.627 280.017 296.253 283.778 C 283.008 292.193 262.778 291.833 249.346 284.139 C 244.213 281.26 239.321 276.622 238.963 270.892 C 238.994 266.342 240.934 262.76 244.156 261.045 C 257.048 255.852 272.98 258.721 284.082 265.341 C 284.793 268.923 280.917 268.728 279.063 269.997 C 266.708 277.159 257.401 261.945 245.943 267.488 C 244.332 268.562 243.168 271.558 245.048 272.503 C 259.19 278.77 274.946 274.292 288.909 270.355 C 290.52 269.818 292.492 268.207 292.668 266.596 C 292.131 260.866 285.688 259.616 281.568 258.005 C 269.395 254.962 255.969 254.962 242.898 253.709 C 240.392 253.172 237.199 251.427 236.454 249.414 C 235.023 245.118 235.023 239.209 238.244 235.63 C 254.892 220.948 280.134 222.203 301.259 226.141 C 302.694 226.667 304.304 227.204 304.844 228.815 Z M 226.61 235.619 C 228.221 252.804 229.116 268.741 228.758 286.821 C 228.4 289.145 225.715 289.685 223.926 290.58 C 221.062 291.117 217.36 290.507 216.227 288.969 C 212.11 282.341 213.542 273.395 213.184 265.338 C 213.721 252.63 213.542 238.843 217.124 227.025 C 217.809 225.308 219.809 223.804 221.42 224.875 C 225.715 227.025 226.431 231.324 226.61 235.619 Z M 425.515 233.113 C 426.376 234.561 427.276 236.797 425.515 237.767 C 417.458 241.347 406.54 239.736 397.228 240.81 C 394.722 242.957 392.75 246.537 393.643 249.761 C 394.543 250.298 395.344 251.115 396.333 251.012 C 402.058 251.372 410.654 248.327 414.418 253.696 C 415.336 255.294 414.293 261.26 411.733 261.395 C 404.747 262.295 393.261 260.518 389.887 262.295 C 385.591 265.159 385.947 270.708 384.336 275.187 C 387.381 277.156 390.569 275.141 394.18 274.648 C 400.81 273.574 408.151 271.605 414.771 273.037 C 416.023 275.364 417.816 277.872 416.56 280.736 C 405.274 289.687 390.717 298.862 375.208 292.372 C 369.387 289.763 366.793 280.915 368.764 273.4 C 370.014 268.028 375.563 262.837 372.165 257.107 C 371.628 254.599 373.062 252.454 375.21 251.917 C 381.117 251.917 379.861 244.576 382.906 241.173 C 379.506 237.414 370.915 237.593 371.809 230.073 C 375.929 227.925 380.943 228.641 385.591 227.925 C 396.154 225.775 407.969 224.522 418.719 225.775 C 420.859 226.206 423.725 230.429 425.515 233.113 Z M 169.857 192.295 C 186.378 205.799 207.812 228.818 205.127 255.312 C 201.903 276.261 179.704 292.014 160.906 297.028 C 142.644 302.398 119.729 301.861 101.107 297.565 C 99.854 300.969 98.601 305.083 94.664 306.517 C 92.158 307.412 88.934 306.875 86.965 305.264 C 81.416 300.071 85.891 290.045 77.834 286.826 C 62.078 280.201 45.07 267.13 37.016 251.019 C 35.942 247.798 37.195 244.576 39.164 242.07 C 51.519 232.224 67.093 228.286 82.669 225.241 C 83.564 225.599 83.206 224.346 83.922 223.988 C 84.817 213.246 85.175 202.323 88.576 192.655 C 89.351 191.299 91.26 190.866 92.516 191.761 C 102.363 199.278 97.706 213.425 102.005 223.627 C 120.803 224.522 139.601 225.417 154.46 235.982 C 159.474 240.099 160.695 247.961 159.113 252.454 C 157.533 256.939 152.312 260.153 147.477 260.506 C 144.252 260.506 138.167 260.819 138.525 258.36 C 138.883 255.899 149.477 251.87 146.224 248.511 C 141.547 243.684 118.147 240.812 103.644 239.022 C 101.854 238.664 100.212 239.201 100.212 241.17 C 99.854 254.775 98.78 269.813 101.107 282.886 C 101.286 283.784 102.36 284.858 103.257 285.031 C 128.857 289.151 155.891 286.821 175.943 272.142 C 185.252 264.627 188.298 254.057 186.684 242.423 C 178.627 210.019 144.792 190.503 117.042 177.971 C 90.01 166.156 60.11 160.068 28.064 161.681 C 22.962 162.055 14.876 163.816 14.817 165.621 C 14.757 167.427 23.976 166.859 22.871 170.275 C 21.768 173.689 12.399 171.663 9.624 170.812 C 6.848 169.961 7.118 165.977 7.834 163.471 C 14.817 151.119 34.302 150.12 43.104 149.687 C 91.797 148.431 138.885 166.975 169.857 192.295 Z M 82.132 240.275 C 69.777 240.454 56.709 241.707 45.252 246.003 C 42.925 246.898 40.058 249.403 41.848 252.449 C 46.502 258.713 53.158 263.857 59.394 267.486 C 65.63 271.11 73.897 275.722 81.416 276.798 C 83.206 265.159 83.206 253.702 83.027 241.707 C 82.309 241.349 83.025 240.633 82.132 240.275 Z M 452.186 223.983 C 451.649 239.557 437.143 249.227 437.143 264.801 C 437.68 265.338 438.043 266.054 438.754 265.701 C 450.396 252.988 461.851 234.906 478.859 229.536 C 483.342 229.178 487.391 233.072 489.067 235.982 C 494.976 247.798 493.549 264.448 485.31 275.19 C 476.81 285.734 462.032 296.315 445.211 294.523 C 438.23 311.71 433.387 329.793 430.703 348.591 C 429.271 352.35 425.873 348.949 423.725 348.233 C 409.225 336.776 421.131 306.444 422.114 302.574 C 423.097 298.714 426.978 289.61 429.815 281.986 C 423.012 269.815 427.307 255.131 432.856 243.852 C 437.151 236.332 443.065 228.813 450.046 223.085 C 450.933 223.088 451.649 223.267 452.186 223.983 Z M 481.015 243.318 C 478.867 242.96 477.97 245.826 476.182 246.363 C 467.949 255.673 459.711 264.983 455.592 276.082 C 461.145 276.798 465.796 273.218 470.634 271.25 C 478.867 266.057 484.06 257.468 483.523 247.619 C 483.163 246.003 481.731 244.75 481.015 243.318 Z" style=""/>
</svg>