<?xml version="1.0" encoding="utf-8"?>
<svg viewBox="0 0 500 500" xmlns="http://www.w3.org/2000/svg">
  <path d="M 3.254 290.515 L 3.254 234.869 L 72.731 234.869 L 72.731 231.614 L 3.254 231.614 L 3.254 180.849 L 77.123 180.849 L 77.123 177.595 L 0 177.595 L 0 293.768 L 77.773 293.768 L 77.773 290.515 L 3.255 290.515 Z M 140.417 210.136 L 111.618 248.047 L 83.468 210.137 L 79.238 210.137 L 109.665 250.489 L 76.309 293.767 L 80.214 293.767 L 111.616 252.927 L 143.182 293.767 L 147.249 293.767 L 113.732 250.487 L 144.32 210.135 L 140.416 210.135 Z M 157.012 322.405 L 157.012 270.34 L 157.338 270.34 C 159.291 277.932 163.142 284.034 168.89 288.645 C 174.639 293.253 181.961 295.559 190.856 295.559 C 196.605 295.559 201.704 294.393 206.15 292.061 C 210.598 289.729 214.312 286.556 217.296 282.543 C 220.279 278.529 222.557 273.865 224.13 268.549 C 225.702 263.235 226.489 257.648 226.489 251.791 C 226.489 245.499 225.675 239.696 224.048 234.382 C 222.421 229.066 220.061 224.455 216.97 220.551 C 213.879 216.647 210.137 213.607 205.744 211.44 C 201.351 209.27 196.388 208.185 190.856 208.185 C 186.626 208.185 182.694 208.809 179.059 210.056 C 175.426 211.304 172.2 213.066 169.379 215.344 C 166.542 217.64 164.073 220.356 162.057 223.398 C 159.996 226.489 158.423 229.879 157.338 233.568 L 157.012 233.568 L 157.012 210.136 L 153.759 210.136 L 153.759 322.405 L 157.012 322.405 Z M 190.856 292.466 C 180.66 292.466 172.47 288.969 166.288 281.972 C 160.105 274.976 157.012 264.915 157.012 251.789 C 157.012 246.366 157.773 241.214 159.291 236.332 C 160.81 231.452 163.006 227.166 165.88 223.479 C 168.755 219.791 172.308 216.862 176.537 214.693 C 180.768 212.523 185.541 211.438 190.856 211.438 C 196.28 211.438 201.026 212.523 205.093 214.693 C 209.161 216.862 212.524 219.818 215.181 223.56 C 217.838 227.303 219.845 231.587 221.201 236.414 C 222.557 241.24 223.234 246.366 223.234 251.789 C 223.234 256.671 222.611 261.526 221.364 266.352 C 220.116 271.18 218.19 275.518 215.587 279.369 C 212.985 283.22 209.65 286.365 205.581 288.807 C 201.513 291.246 196.605 292.466 190.856 292.466 Z M 244.387 293.768 L 244.387 246.421 C 244.387 241.865 245.037 237.417 246.34 233.079 C 247.64 228.74 249.648 224.916 252.36 221.608 C 255.072 218.3 258.515 215.696 262.692 213.797 C 266.867 211.899 271.831 211.113 277.58 211.438 L 277.58 208.184 C 272.589 208.077 268.224 208.618 264.482 209.811 C 260.738 211.005 257.512 212.631 254.8 214.693 C 252.088 216.754 249.919 219.167 248.293 221.933 C 246.666 224.695 245.46 227.683 244.712 230.8 L 244.387 230.8 L 244.387 210.136 L 241.133 210.136 L 241.133 293.769 L 244.387 293.769 Z M 281.647 252.603 L 351.611 252.603 C 351.829 246.854 351.259 241.323 349.903 236.007 C 348.547 230.692 346.377 225.973 343.394 221.852 C 340.411 217.73 336.561 214.422 331.842 211.926 C 327.123 209.431 321.509 208.184 315.002 208.184 C 310.337 208.184 305.781 209.161 301.335 211.114 C 296.887 213.066 292.982 215.913 289.62 219.655 C 286.257 223.397 283.546 227.98 281.485 233.405 C 279.424 238.828 278.393 245.01 278.393 251.953 C 278.393 258.136 279.098 263.912 280.508 269.281 C 281.918 274.65 284.087 279.315 287.016 283.274 C 289.946 287.233 293.715 290.298 298.324 292.466 C 302.934 294.636 308.493 295.666 315.002 295.558 C 324.548 295.558 332.574 292.873 339.082 287.504 C 345.591 282.134 349.442 274.569 350.635 264.806 L 347.381 264.806 C 345.971 274.027 342.363 280.942 336.561 285.551 C 330.757 290.162 323.463 292.466 314.676 292.466 C 308.71 292.466 303.666 291.436 299.544 289.375 C 295.423 287.315 292.059 284.494 289.457 280.914 C 286.854 277.334 284.928 273.131 283.681 268.305 C 282.433 263.478 281.755 258.244 281.647 252.603 Z M 348.357 249.35 L 281.648 249.35 C 281.972 243.492 283.056 238.231 284.901 233.567 C 286.746 228.902 289.158 224.916 292.142 221.608 C 295.124 218.3 298.596 215.778 302.555 214.042 C 306.514 212.306 310.772 211.438 315.327 211.438 C 320.751 211.438 325.523 212.442 329.645 214.449 C 333.767 216.456 337.211 219.195 339.977 222.666 C 342.743 226.137 344.831 230.178 346.242 234.786 C 347.651 239.397 348.357 244.252 348.357 249.35 Z M 419.135 234.869 L 422.389 234.869 C 422.389 225.54 419.677 218.76 414.254 214.53 C 408.829 210.299 401.454 208.184 392.126 208.184 C 386.918 208.184 382.525 208.836 378.946 210.137 C 375.367 211.438 372.438 213.119 370.159 215.18 C 367.882 217.241 366.255 219.52 365.278 222.014 C 364.302 224.509 363.814 226.896 363.814 229.174 C 363.814 233.729 364.627 237.363 366.255 240.075 C 367.882 242.786 370.431 244.902 373.901 246.421 C 376.288 247.504 378.999 248.481 382.037 249.351 C 385.074 250.217 388.6 251.139 392.614 252.115 C 396.193 252.984 399.718 253.851 403.189 254.718 C 406.66 255.587 409.725 256.753 412.382 258.216 C 415.04 259.682 417.21 261.553 418.891 263.831 C 420.572 266.108 421.412 269.091 421.412 272.779 C 421.412 276.359 420.573 279.396 418.891 281.89 C 417.224 284.373 415.03 286.457 412.464 287.992 C 409.861 289.565 406.958 290.703 403.759 291.408 C 400.559 292.114 397.44 292.466 394.403 292.466 C 384.533 292.466 376.966 290.27 371.705 285.878 C 366.444 281.484 363.815 274.569 363.815 265.131 L 360.56 265.131 C 360.56 275.654 363.407 283.355 369.102 288.237 C 374.797 293.118 383.23 295.558 394.403 295.558 C 397.982 295.558 401.589 295.151 405.223 294.337 C 408.857 293.524 412.112 292.196 414.986 290.352 C 417.835 288.532 420.229 286.084 421.982 283.193 C 423.772 280.263 424.668 276.684 424.668 272.454 C 424.668 268.44 423.88 265.186 422.308 262.691 C 420.735 260.197 418.674 258.136 416.124 256.508 C 413.575 254.882 410.701 253.607 407.501 252.685 C 404.283 251.757 401.056 250.863 397.819 250 C 393.837 248.955 389.851 247.924 385.861 246.909 C 382.445 246.041 379.272 245.01 376.343 243.817 C 373.523 242.623 371.272 240.915 369.59 238.692 C 367.909 236.469 367.069 233.295 367.069 229.174 C 367.069 228.415 367.285 227.058 367.719 225.106 C 368.152 223.153 369.184 221.174 370.811 219.167 C 372.438 217.161 374.932 215.371 378.295 213.797 C 381.658 212.226 386.268 211.438 392.126 211.438 C 396.139 211.438 399.799 211.873 403.108 212.74 C 406.416 213.607 409.264 214.99 411.649 216.889 C 414.036 218.788 415.881 221.201 417.182 224.129 C 418.483 227.059 419.135 230.638 419.135 234.869 Z M 494.468 234.869 L 497.722 234.869 C 497.722 225.54 495.012 218.76 489.588 214.53 C 484.164 210.299 476.787 208.184 467.458 208.184 C 462.252 208.184 457.859 208.836 454.28 210.137 C 450.699 211.438 447.77 213.119 445.494 215.18 C 443.215 217.241 441.588 219.52 440.612 222.014 C 439.635 224.509 439.148 226.896 439.148 229.174 C 439.148 233.729 439.961 237.363 441.589 240.075 C 443.215 242.786 445.765 244.902 449.236 246.421 C 451.623 247.504 454.334 248.481 457.371 249.351 C 460.408 250.217 463.933 251.139 467.946 252.115 C 471.527 252.984 475.052 253.851 478.523 254.718 C 481.994 255.587 485.058 256.753 487.717 258.216 C 490.373 259.682 492.543 261.553 494.224 263.831 C 495.905 266.108 496.746 269.091 496.746 272.779 C 496.746 276.359 495.905 279.396 494.224 281.89 C 492.557 284.372 490.363 286.456 487.798 287.992 C 485.193 289.565 482.293 290.703 479.092 291.408 C 475.893 292.114 472.774 292.466 469.737 292.466 C 459.866 292.466 452.3 290.27 447.04 285.878 C 441.778 281.484 439.148 274.569 439.148 265.131 L 435.893 265.131 C 435.893 275.654 438.741 283.355 444.436 288.237 C 450.13 293.118 458.564 295.558 469.737 295.558 C 473.317 295.558 476.923 295.151 480.557 294.337 C 484.189 293.524 487.444 292.196 490.319 290.352 C 493.169 288.532 495.563 286.084 497.316 283.193 C 499.105 280.263 500 276.684 500 272.454 C 500 268.44 499.214 265.186 497.641 262.691 C 496.068 260.197 494.008 258.136 491.458 256.508 C 488.91 254.882 486.034 253.607 482.835 252.685 C 479.617 251.757 476.389 250.863 473.154 250 C 469.171 248.955 465.185 247.924 461.195 246.909 C 457.777 246.041 454.605 245.01 451.676 243.817 C 448.856 242.623 446.605 240.915 444.924 238.692 C 443.242 236.469 442.402 233.295 442.402 229.174 C 442.402 228.415 442.619 227.058 443.053 225.106 C 443.487 223.153 444.518 221.174 446.144 219.167 C 447.77 217.161 450.266 215.371 453.628 213.797 C 456.992 212.226 461.601 211.438 467.459 211.438 C 471.473 211.438 475.133 211.873 478.441 212.74 C 481.751 213.607 484.597 214.99 486.984 216.889 C 489.371 218.788 491.214 221.201 492.516 224.129 C 493.818 227.059 494.469 230.638 494.469 234.869 Z" fill="#222" style=""/>
</svg>