<?xml version="1.0" encoding="utf-8"?>
<svg viewBox="0 0 500 500" xmlns="http://www.w3.org/2000/svg">
  <title>logo</title>
  <path d="M 166.666 500 C 212.666 500 250 462.667 250 416.667 L 250 333.333 L 166.666 333.333 C 120.666 333.333 83.333 370.667 83.333 416.667 C 83.333 462.667 120.666 500 166.666 500 Z" fill="#0acf83" style=""/>
  <path d="M 83.333 250 C 83.333 204 120.666 166.667 166.666 166.667 L 250 166.667 L 250 333.333 L 166.666 333.333 C 120.666 333.333 83.333 296 83.333 250 Z" fill="#a259ff" style=""/>
  <path d="M 83.333 83.333 C 83.333 37.333 120.666 0 166.666 0 L 250 0 L 250 166.667 L 166.666 166.667 C 120.666 166.667 83.333 129.333 83.333 83.333 Z" fill="#f24e1e" style=""/>
  <path d="M 250 0 L 333.333 0 C 379.333 0 416.666 37.333 416.666 83.333 C 416.666 129.333 379.333 166.667 333.333 166.667 L 250 166.667 Z" fill="#ff7262" style=""/>
  <path d="M 416.666 250 C 416.666 296 379.333 333.333 333.333 333.333 C 287.333 333.333 250 296 250 250 C 250 204 287.333 166.667 333.333 166.667 C 379.333 166.667 416.666 204 416.666 250 Z" fill="#1abcfe" style=""/>
</svg>