<?xml version="1.0" encoding="utf-8"?>
<svg viewBox="0 0 500 500" xmlns="http://www.w3.org/2000/svg" xmlns:bx="https://boxy-svg.com">
  <defs>
    <bx:grid x="174.283" y="-260.958" width="97.204" height="97.204"/>
  </defs>
  <g transform="matrix(0.072886, 0, 0, -0.072886, -8.994196, 511.315186)" fill="#000000" stroke="none" style="">
    <path d="M 3248.415 6498.454 C 3204.415 6493.454 3132.415 6483.454 3088.415 6476.454 L 3008.415 6464.454 L 3002.415 6397.454 C 2996.415 6328.454 2980.415 6294.454 2934.415 6251.454 C 2837.415 6161.454 2666.415 6194.454 2609.415 6314.454 C 2600.415 6333.454 2588.415 6349.454 2584.415 6349.454 C 2571.415 6349.454 2364.415 6265.454 2315.415 6240.454 L 2274.415 6219.454 L 2288.415 6184.454 C 2341.415 6060.454 2234.415 5909.454 2094.415 5907.454 C 2033.415 5907.454 1979.415 5930.454 1937.415 5974.454 L 1904.415 6010.454 L 1782.415 5917.454 C 1715.415 5866.454 1655.415 5817.454 1650.415 5808.454 C 1643.415 5796.454 1646.415 5784.454 1663.415 5761.454 C 1694.415 5719.454 1701.415 5634.454 1679.415 5574.454 C 1649.415 5495.454 1565.415 5439.454 1477.415 5439.454 C 1459.415 5439.454 1420.415 5452.454 1389.415 5468.454 L 1333.415 5498.454 L 1290.415 5446.454 C 1228.415 5373.454 1133.415 5242.454 1133.415 5230.454 C 1133.415 5225.454 1141.415 5214.454 1152.415 5207.454 C 1162.415 5200.454 1182.415 5177.454 1196.415 5156.454 C 1300.415 5002.454 1151.415 4797.454 969.415 4844.454 C 941.415 4852.454 914.415 4854.454 910.415 4850.454 C 901.415 4841.454 780.415 4548.454 785.415 4546.454 C 873.415 4503.454 914.415 4459.454 934.415 4385.454 C 968.415 4263.454 847.415 4120.454 719.415 4130.454 L 674.415 4134.454 L 664.415 4074.454 C 646.415 3972.454 631.415 3820.454 636.415 3805.454 C 639.415 3798.454 660.415 3789.454 683.415 3785.454 C 743.415 3776.454 816.415 3701.454 832.415 3631.454 C 858.415 3523.454 789.415 3408.454 680.415 3381.454 C 638.415 3370.454 633.415 3366.454 633.415 3341.454 C 634.415 3308.454 649.415 3189.454 664.415 3097.454 L 675.415 3031.454 L 707.415 3036.454 C 796.415 3050.454 901.415 2977.454 929.415 2882.454 C 946.415 2824.454 942.415 2786.454 912.415 2728.454 C 891.415 2686.454 842.415 2642.454 807.415 2633.454 C 794.415 2630.454 783.415 2625.454 783.415 2624.454 C 783.415 2616.454 855.415 2436.454 882.415 2375.454 C 908.415 2319.454 916.415 2308.454 931.415 2314.454 C 971.415 2331.454 1054.415 2331.454 1098.415 2314.454 C 1174.415 2286.454 1233.415 2197.454 1233.415 2112.454 C 1233.415 2073.454 1187.415 1982.454 1157.415 1962.454 C 1144.415 1954.454 1133.415 1942.454 1133.415 1936.454 C 1133.415 1924.454 1224.415 1801.454 1290.415 1722.454 L 1335.415 1669.454 L 1376.415 1693.454 C 1462.415 1743.454 1548.415 1736.454 1622.415 1673.454 C 1697.415 1608.454 1716.415 1484.454 1661.415 1402.454 L 1636.415 1365.454 L 1677.415 1330.454 C 1700.415 1311.454 1760.415 1265.454 1811.415 1226.454 L 1904.415 1157.454 L 1940.415 1194.454 C 1985.415 1240.454 2028.415 1259.454 2090.415 1259.454 C 2236.415 1258.454 2341.415 1110.454 2288.415 982.454 C 2280.415 962.454 2274.415 945.454 2275.415 944.454 C 2289.415 936.454 2454.415 866.454 2512.415 843.454 C 2593.415 812.454 2587.415 810.454 2625.415 878.454 C 2662.415 946.454 2777.415 986.454 2858.415 959.454 C 2905.415 943.454 2972.415 884.454 2990.415 842.454 C 2997.415 824.454 3003.415 785.454 3003.415 756.454 L 3003.415 702.454 L 3131.415 685.454 C 3365.415 654.454 3343.415 655.454 3343.415 681.454 C 3344.415 715.454 3377.415 780.454 3409.415 811.454 C 3517.415 912.454 3690.415 874.454 3747.415 737.454 C 3756.415 716.454 3763.415 690.454 3763.415 679.454 C 3763.415 655.454 3742.415 655.454 3976.415 685.454 L 4103.415 702.454 L 4103.415 756.454 C 4103.415 785.454 4109.415 824.454 4116.415 842.454 C 4134.415 884.454 4201.415 943.454 4248.415 959.454 C 4329.415 986.454 4444.415 946.454 4481.415 878.454 C 4519.415 810.454 4513.415 812.454 4594.415 843.454 C 4652.415 866.454 4817.415 936.454 4831.415 944.454 C 4832.415 945.454 4826.415 962.454 4818.415 982.454 C 4765.415 1110.454 4870.415 1258.454 5016.415 1259.454 C 5078.415 1259.454 5121.415 1240.454 5166.415 1194.454 L 5202.415 1157.454 L 5295.415 1226.454 C 5346.415 1265.454 5406.415 1311.454 5429.415 1330.454 L 5470.415 1365.454 L 5445.415 1402.454 C 5390.415 1484.454 5409.415 1608.454 5484.415 1673.454 C 5558.415 1736.454 5644.415 1743.454 5730.415 1693.454 L 5771.415 1669.454 L 5816.415 1722.454 C 5882.415 1801.454 5973.415 1924.454 5973.415 1936.454 C 5973.415 1942.454 5962.415 1954.454 5949.415 1962.454 C 5919.415 1982.454 5873.415 2073.454 5873.415 2112.454 C 5873.415 2197.454 5932.415 2286.454 6008.415 2314.454 C 6052.415 2331.454 6135.415 2331.454 6175.415 2314.454 C 6190.415 2308.454 6198.415 2319.454 6224.415 2375.454 C 6251.415 2436.454 6323.415 2616.454 6323.415 2624.454 C 6323.415 2625.454 6312.415 2630.454 6299.415 2633.454 C 6243.415 2647.454 6185.415 2720.454 6168.415 2796.454 C 6143.415 2914.454 6279.415 3055.454 6399.415 3036.454 L 6431.415 3031.454 L 6442.415 3097.454 C 6457.415 3188.454 6472.415 3308.454 6473.415 3341.454 C 6473.415 3365.454 6467.415 3369.454 6419.415 3383.454 C 6312.415 3414.454 6247.415 3527.454 6274.415 3634.454 C 6291.415 3702.454 6364.415 3776.454 6423.415 3785.454 C 6446.415 3789.454 6467.415 3798.454 6470.415 3805.454 C 6475.415 3820.454 6460.415 3972.454 6442.415 4074.454 L 6432.415 4134.454 L 6387.415 4130.454 C 6259.415 4120.454 6138.415 4263.454 6172.415 4385.454 C 6192.415 4459.454 6233.415 4503.454 6321.415 4546.454 C 6326.415 4548.454 6205.415 4841.454 6196.415 4850.454 C 6192.415 4854.454 6165.415 4852.454 6137.415 4844.454 C 6059.415 4824.454 6003.415 4839.454 5943.415 4898.454 C 5888.415 4951.454 5867.415 5007.454 5878.415 5075.454 C 5884.415 5119.454 5922.415 5184.454 5954.415 5207.454 C 5965.415 5214.454 5973.415 5225.454 5973.415 5230.454 C 5973.415 5242.454 5878.415 5373.454 5816.415 5446.454 L 5773.415 5498.454 L 5717.415 5468.454 C 5686.415 5452.454 5647.415 5439.454 5629.415 5439.454 C 5541.415 5439.454 5457.415 5495.454 5427.415 5574.454 C 5405.415 5634.454 5412.415 5719.454 5443.415 5761.454 C 5460.415 5784.454 5463.415 5796.454 5456.415 5808.454 C 5451.415 5817.454 5391.415 5866.454 5324.415 5917.454 L 5202.415 6010.454 L 5169.415 5974.454 C 5127.415 5930.454 5073.415 5907.454 5012.415 5907.454 C 4872.415 5909.454 4765.415 6060.454 4818.415 6184.454 L 4832.415 6219.454 L 4791.415 6240.454 C 4742.415 6265.454 4535.415 6349.454 4522.415 6349.454 C 4518.415 6349.454 4506.415 6333.454 4497.415 6314.454 C 4440.415 6194.454 4269.415 6161.454 4172.415 6251.454 C 4126.415 6294.454 4110.415 6328.454 4104.415 6397.454 L 4098.415 6464.454 L 3988.415 6480.454 C 3928.415 6489.454 3852.415 6498.454 3821.415 6501.454 C 3769.415 6505.454 3763.415 6504.454 3763.415 6487.454 C 3763.415 6457.454 3734.415 6396.454 3705.415 6365.454 C 3602.415 6255.454 3417.415 6290.454 3359.415 6431.454 C 3350.415 6452.454 3343.415 6478.454 3343.415 6489.454 C 3343.415 6500.454 3340.415 6508.454 3336.415 6508.454 C 3331.415 6507.454 3292.415 6502.454 3248.415 6498.454 Z M 2941.415 5278.454 C 3137.415 5228.454 3278.415 5085.454 3339.415 4874.454 C 3353.415 4825.454 3357.415 4757.454 3360.415 4487.454 L 3365.415 4159.454 L 3124.415 4159.454 L 2883.415 4159.454 L 2883.415 4442.454 C 2883.415 4698.454 2881.415 4728.454 2863.415 4766.454 C 2839.415 4820.454 2793.415 4849.454 2733.415 4849.454 C 2676.415 4849.454 2632.415 4822.454 2607.415 4773.454 C 2589.415 4735.454 2588.415 4695.454 2585.415 3599.454 C 2583.415 2975.454 2585.415 2444.454 2588.415 2420.454 C 2593.415 2390.454 2604.415 2366.454 2623.415 2347.454 C 2648.415 2323.454 2659.415 2319.454 2708.415 2319.454 C 2771.415 2319.454 2811.415 2336.454 2842.415 2375.454 C 2862.415 2401.454 2863.415 2412.454 2863.415 2740.454 L 2863.415 3078.454 L 2786.415 3081.454 L 2708.415 3084.454 L 2708.415 3289.454 L 2708.415 3494.454 L 3026.415 3497.454 L 3344.415 3499.454 L 3340.415 2917.454 C 3337.415 2406.454 3334.415 2326.454 3319.415 2270.454 C 3266.415 2067.454 3134.415 1938.454 2923.415 1882.454 C 2827.415 1857.454 2605.415 1860.454 2500.415 1888.454 C 2291.415 1943.454 2173.415 2069.454 2129.415 2282.454 C 2115.415 2349.454 2113.415 2504.454 2113.415 3572.454 C 2113.415 4753.454 2114.415 4788.454 2133.415 4865.454 C 2197.415 5117.454 2369.415 5267.454 2629.415 5299.454 C 2720.415 5310.454 2850.415 5301.454 2941.415 5278.454 Z M 4493.415 5287.454 C 4511.415 5179.454 4949.415 1892.454 4946.415 1887.454 C 4944.415 1882.454 4834.415 1879.454 4702.415 1879.454 C 4463.415 1879.454 4462.415 1879.454 4454.415 1902.454 C 4450.415 1914.454 4425.415 2093.454 4399.415 2299.454 C 4373.415 2505.454 4349.415 2682.454 4347.415 2692.454 C 4342.415 2707.454 4327.415 2709.454 4208.415 2709.454 L 4075.415 2709.454 L 4069.415 2672.454 C 4065.415 2651.454 4043.415 2474.454 4018.415 2279.454 C 3993.415 2084.454 3970.415 1914.454 3968.415 1902.454 L 3963.415 1879.454 L 3718.415 1879.454 C 3584.415 1879.454 3472.415 1883.454 3469.415 1887.454 C 3465.415 1894.454 3909.415 5250.454 3918.415 5277.454 C 3921.415 5286.454 3988.415 5289.454 4208.415 5289.454 C 4365.415 5289.454 4493.415 5288.454 4493.415 5287.454 Z" style="fill: rgb(255, 40, 65);"/>
    <path d="M4085 3926 c-55 -21 -111 -85 -124 -144 -35 -167 132 -296 287 -221 95 46 133 179 79 274 -47 83 -153 123 -242 91z" style="fill: rgb(255, 40, 65);"/>
  </g>
</svg>