<?xml version="1.0" encoding="utf-8"?>
<svg viewBox="0 0 500 500" xmlns="http://www.w3.org/2000/svg">
  <title>logo</title>
  <path d="M 490.571 227.727 L 272.266 9.433 C 259.702 -3.139 239.311 -3.139 226.731 9.433 L 181.399 54.766 L 238.905 112.272 C 252.268 107.756 267.592 110.785 278.245 121.438 C 288.948 132.158 291.956 147.613 287.331 161.02 L 342.751 216.442 C 356.159 211.823 371.63 214.811 382.339 225.537 C 397.305 240.498 397.305 264.746 382.339 279.717 C 367.368 294.69 343.12 294.69 328.141 279.717 C 316.883 268.448 314.102 251.914 319.801 238.045 L 268.118 186.362 L 268.112 322.372 C 271.858 324.223 275.28 326.67 278.245 329.618 C 293.212 344.579 293.212 368.829 278.245 383.811 C 263.274 398.776 239.014 398.776 224.065 383.811 C 209.098 368.829 209.098 344.581 224.065 329.62 C 227.651 326.03 231.915 323.188 236.606 321.258 L 236.606 183.981 C 231.907 182.063 227.643 179.219 224.065 175.619 C 212.725 164.295 209.998 147.656 215.809 133.733 L 159.121 77.039 L 9.434 226.717 C -3.145 239.301 -3.145 259.694 9.434 272.268 L 227.743 490.565 C 240.311 503.14 260.698 503.14 273.282 490.565 L 490.569 273.282 C 503.144 260.703 503.144 240.299 490.569 227.727" fill="#DE4C36" style=""/>
</svg>