<?xml version="1.0" encoding="utf-8"?>
<svg viewBox="0 0 500 500" xmlns="http://www.w3.org/2000/svg">
  <title>logo</title>
  <path d="M 0.001 250 C 0.001 180.989 24.415 122.07 73.243 73.242 C 122.07 24.414 180.99 0 250.001 0 C 319.011 0 377.93 24.414 426.758 73.242 C 475.586 122.07 500 180.989 500 250 C 500 319.01 475.586 377.929 426.758 426.757 C 377.93 475.585 319.011 500 250.001 500 C 180.99 500 122.07 475.585 73.243 426.757 C 24.415 377.93 0.001 319.01 0.001 250 Z M 27.344 250 C 27.344 311.198 49.154 363.606 92.774 407.226 C 136.394 450.846 188.802 472.656 250.001 472.656 C 311.198 472.656 363.607 450.847 407.227 407.226 C 450.847 363.607 472.657 311.198 472.657 250 C 472.657 188.802 450.848 136.393 407.227 92.774 C 363.607 49.153 311.198 27.344 250.001 27.344 C 188.802 27.344 136.394 49.153 92.774 92.774 C 49.154 136.393 27.344 188.802 27.344 250 Z M 97.658 303.711 C 96.355 302.409 96.355 301.106 97.658 299.804 C 100.261 297.2 103.517 296.223 107.422 296.874 C 111.328 297.526 113.608 298.177 114.258 298.828 C 118.816 300.781 123.861 305.176 129.395 312.012 C 134.928 318.847 139.323 323.568 142.578 326.171 C 158.203 339.192 174.153 340.169 190.429 329.102 C 191.732 324.544 193.847 320.638 196.777 317.381 C 199.706 314.127 202.474 311.848 205.078 310.546 C 207.683 309.244 212.239 307.291 218.751 304.687 C 197.266 302.734 179.851 298.989 166.504 293.455 C 153.158 287.922 142.578 280.924 134.766 272.46 C 124.349 260.742 118.001 245.442 115.723 226.562 C 113.443 207.682 114.908 190.429 120.117 174.804 C 124.024 165.038 129.557 156.25 136.718 148.437 C 131.51 132.161 132.486 113.606 139.648 92.773 C 160.481 94.075 179.361 101.236 196.288 114.257 C 228.841 105.793 262.694 105.468 297.85 113.281 C 302.408 110.025 309.407 105.957 318.846 101.074 C 328.286 96.191 340.168 93.423 354.491 92.773 C 357.095 99.934 358.886 108.398 359.862 118.163 C 360.838 127.928 360.351 137.043 358.397 145.507 C 373.371 161.132 381.184 181.965 381.835 208.007 C 381.835 228.84 378.254 246.092 371.093 259.765 C 363.931 273.436 351.236 284.829 333.007 293.943 C 320.637 299.803 304.361 303.384 284.179 304.685 C 293.294 309.243 299.967 313.963 304.199 318.846 C 308.431 323.729 311.197 331.378 312.5 341.795 L 312.5 372.557 L 313.476 402.343 C 315.429 405.598 317.708 408.364 320.313 410.644 C 322.917 412.922 325.196 414.55 327.148 415.527 C 329.101 416.503 329.753 417.968 329.101 419.921 C 328.451 421.874 325.846 422.851 321.289 422.851 C 310.221 422.851 301.432 418.945 294.922 411.131 C 292.969 407.877 291.993 403.971 291.993 399.413 L 291.993 352.538 C 291.993 347.33 290.69 343.586 288.086 341.307 C 285.482 339.028 282.878 337.563 280.273 336.912 L 280.273 398.436 C 280.273 409.504 281.576 416.665 284.18 419.92 C 286.784 423.176 288.412 426.431 289.063 429.686 C 289.714 430.337 289.226 430.825 287.598 431.151 C 285.971 431.476 283.204 430.988 279.297 429.686 C 270.834 427.733 264.974 423.338 261.719 416.502 C 258.464 409.667 256.836 402.342 256.836 394.529 L 256.836 333.984 L 244.141 333.984 L 244.141 394.531 C 244.141 402.344 242.513 409.831 239.258 416.991 C 234.701 426.107 226.237 430.989 213.868 431.64 C 211.914 430.989 210.938 430.338 210.938 429.688 C 211.589 429.036 213.542 425.781 216.797 419.922 C 217.448 418.62 218.262 416.015 219.239 412.109 C 220.216 408.203 220.704 403.646 220.704 398.438 L 220.704 336.914 C 218.1 337.564 215.658 339.029 213.379 341.308 C 211.101 343.588 209.961 347.331 209.961 352.539 L 209.961 399.414 C 209.961 403.971 208.985 407.878 207.031 411.133 C 201.172 418.946 192.383 422.852 180.665 422.852 C 176.108 422.852 173.503 421.875 172.853 419.923 C 172.201 418.62 172.364 417.481 173.341 416.504 C 174.318 415.527 175.782 414.388 177.736 413.086 C 179.689 411.784 180.991 410.807 181.642 410.156 C 184.246 408.203 186.198 405.599 187.502 402.344 C 189.454 399.74 189.943 392.904 188.966 381.836 C 187.989 370.768 187.827 363.607 188.478 360.352 C 171.55 366.211 154.297 363.281 136.719 351.563 C 131.511 346.354 126.302 338.866 121.094 329.102 C 117.188 321.939 109.376 313.477 97.658 303.711 Z" style=""/>
</svg>