<?xml version="1.0" encoding="utf-8"?>
<svg viewBox="0 0 500 500" xmlns="http://www.w3.org/2000/svg">
  <linearGradient id="a" gradientUnits="userSpaceOnUse" x1="14.001" x2="32" y1="30.744" y2="30.744" gradientTransform="matrix(10.416396, 0, 0, 10.416396, -83.328237, -83.300025)">
    <stop offset="0" stop-color="#c8c8c8"/>
    <stop offset="1" stop-color="#cdcdcd"/>
  </linearGradient>
  <linearGradient id="b" gradientUnits="userSpaceOnUse" x1="28.665" x2="50" y1="36.447" y2="36.447" gradientTransform="matrix(10.416396, 0, 0, 10.416396, -83.328237, -83.300025)">
    <stop offset="0" stop-color="#d9d9d9"/>
    <stop offset="1" stop-color="#e2e2e2"/>
  </linearGradient>
  <path d="M 468.741 437.518 L 31.252 437.518 C 13.992 437.518 0.003 423.529 0.003 406.269 L 0.003 93.777 C 0.003 76.517 13.992 62.528 31.252 62.528 L 468.741 62.528 C 486.001 62.528 499.99 76.517 499.99 93.777 L 499.99 406.269 C 499.99 423.529 486.001 437.518 468.741 437.518 Z" fill="#eaeaea" style=""/>
  <path d="M 62.501 437.518 L 31.252 437.518 C 13.992 437.518 0.003 423.529 0.003 406.269 L 0.003 93.777 C 0.003 69.726 26.044 54.685 46.877 66.716 C 56.543 72.299 62.501 82.611 62.501 93.777 Z" fill="#d54c3f" style=""/>
  <path d="M 437.492 437.518 L 468.741 437.518 C 486.001 437.518 499.99 423.529 499.99 406.269 L 499.99 93.777 C 499.99 69.726 473.949 54.685 453.116 66.716 C 443.45 72.299 437.492 82.611 437.492 93.777 Z" fill="#b63524" style=""/>
  <path d="M 486.636 119.402 C 506.365 105.631 503.782 75.663 481.98 65.466 C 471.866 60.737 460.001 61.757 450.845 68.153 L 250.017 214.368 L 249.997 214.378 L 249.976 214.368 L 49.148 68.153 C 29.419 54.383 2.18 67.122 0.118 91.09 C -0.851 102.215 4.201 113.006 13.357 119.402 L 12.524 118.787 L 249.997 291.689 M 487.48 118.787 L 249.997 291.689" fill="#de5145" style=""/>
  <path d="M 468.741 62.528 C 462.085 62.528 455.908 64.611 450.845 68.153 L 250.017 214.368 L 249.997 214.378 L 249.976 214.368 L 49.148 68.153 C 43.898 64.486 37.658 62.518 31.252 62.528 Z" fill="#efefef" style=""/>
  <path d="M 62.512 168.65 L 9.847 116.485 L 9.826 116.527 C 10.93 117.568 12.107 118.527 13.357 119.402 L 12.524 118.787 L 62.522 155.192 L 62.512 169.025" fill="#c64132" style=""/>
  <path d="M 215.289 318.678 L 62.501 437.518 L 62.512 167.348 L 215.258 318.636" fill="#e3e3e3" style=""/>
  <path d="M 215.289 318.678 L 249.997 291.689 L 62.512 155.192 L 62.512 167.348 L 215.258 318.636 Z" fill="url(#a)" style=""/>
  <path d="M 333.963 437.518 L 437.492 437.518 L 437.492 155.182 L 249.997 291.689 L 215.258 318.636 Z" fill="url(#b)" style=""/>
</svg>