<?xml version="1.0" encoding="utf-8"?>
<svg viewBox="0 0 500 500" xmlns="http://www.w3.org/2000/svg">
  <title>logo</title>
  <path d="M 105.121 459.841 L 72.885 98.262 L 427.116 98.262 L 394.845 459.784 L 249.783 500 Z" style=""/>
  <path d="M 250 469.26 L 367.217 436.764 L 394.795 127.826 L 250 127.826 Z" style=""/>
  <g fill="#ebebeb" transform="matrix(0.976563, 0, 0, 0.976563, -0.000259, -0.000004)" style="">
    <path d="M256 268.217h-60.09l-4.15-46.501H256v-45.411H142.132l1.087 12.183 11.161 125.139H256zM256 386.153l-.198.053-50.575-13.656-3.233-36.217h-45.585l6.362 71.301 93.02 25.823.209-.058z"/>
  </g>
  <path d="M 105.842 0 L 128.378 0 L 128.378 22.266 L 148.993 22.266 L 148.993 0 L 171.531 0 L 171.531 67.426 L 148.994 67.426 L 148.994 44.848 L 128.379 44.848 L 128.379 67.426 L 105.844 67.426 L 105.844 0 L 105.842 0 Z M 201.166 22.359 L 181.327 22.359 L 181.327 0 L 243.554 0 L 243.554 22.359 L 223.705 22.359 L 223.705 67.426 L 201.168 67.426 L 201.166 22.359 Z M 253.429 0 L 276.927 0 L 291.382 23.691 L 305.824 0 L 329.331 0 L 329.331 67.426 L 306.888 67.426 L 306.888 34.006 L 291.383 57.979 L 290.996 57.979 L 275.48 34.006 L 275.48 67.426 L 253.43 67.426 L 253.43 0 Z M 340.547 0 L 363.09 0 L 363.09 45.139 L 394.783 45.139 L 394.783 67.426 L 340.547 67.426 L 340.547 0 Z" style=""/>
  <g fill="#fff" transform="matrix(0.976563, 0, 0, 0.976563, -0.000259, -0.000004)" style="">
    <path d="M255.844 268.217v45.41h55.917l-5.271 58.894-50.646 13.67v47.244l93.093-25.801.683-7.672 10.671-119.551 1.108-12.194h-12.237zM255.844 176.305V221.716h109.687l.911-10.207 2.069-23.021 1.086-12.183z"/>
  </g>
</svg>