<?xml version="1.0" encoding="utf-8"?>
<svg viewBox="0 0 500 500" xmlns="http://www.w3.org/2000/svg">
  <title>logo</title>
  <path fill="#f0db4f" d="M 0 0 L 500 0 L 500 500 L 0 500 Z" style=""/>
  <path d="M 459.078 380.751 C 455.419 357.937 440.542 338.784 396.482 320.913 C 381.179 313.879 364.116 308.841 359.03 297.243 C 357.225 290.494 356.986 286.692 358.127 282.605 C 361.407 269.344 377.234 265.209 389.781 269.012 C 397.861 271.721 405.513 277.947 410.123 287.88 C 431.702 273.908 431.654 274.002 446.72 264.401 C 441.207 255.847 438.26 251.902 434.648 248.243 C 421.673 233.746 403.993 226.284 375.713 226.854 C 370.817 227.472 365.874 228.137 360.979 228.756 C 346.863 232.319 333.412 239.735 325.523 249.668 C 301.854 276.522 308.603 323.527 337.405 342.871 C 365.779 364.165 407.461 369.012 412.785 388.927 C 417.966 413.309 394.868 421.198 371.911 418.394 C 354.991 414.878 345.581 406.275 335.408 390.638 C 316.683 401.474 316.683 401.474 297.434 412.548 C 301.997 422.529 306.796 427.045 314.448 435.695 C 350.665 472.434 441.302 470.628 457.558 415.02 C 458.222 413.118 462.595 400.381 459.078 380.751 Z M 271.815 229.801 L 225.047 229.801 C 225.047 270.199 224.858 310.314 224.858 350.713 C 224.858 376.426 226.189 400 222.007 407.224 C 215.162 421.435 197.434 419.678 189.354 416.92 C 181.132 412.881 176.948 407.129 172.101 399.003 C 170.77 396.673 169.771 394.868 169.439 394.725 C 156.749 402.472 144.106 410.266 131.416 418.014 C 137.737 430.989 147.053 442.253 158.983 449.573 C 176.805 460.266 200.761 463.545 225.809 457.795 C 242.111 453.041 256.178 443.204 263.546 428.233 C 274.191 408.603 271.911 384.838 271.815 358.556 C 272.054 315.684 271.815 272.814 271.815 229.801 Z" fill="#323330" style=""/>
</svg>