<?xml version="1.0" encoding="utf-8"?>
<svg viewBox="0 0 500 500" xmlns="http://www.w3.org/2000/svg">
  <title>logo</title>
  <path d="M 248.434 1.366 L 261.778 26.427 C 264.779 31.05 268.028 35.143 271.855 38.956 C 283.079 50.039 293.539 61.868 303.165 74.36 C 325.774 104.046 341.022 137.011 351.913 172.665 C 358.443 194.445 361.99 216.787 362.256 239.379 C 363.348 306.922 340.194 364.917 293.51 413.117 C 285.918 420.759 277.713 427.771 268.981 434.082 C 264.356 434.082 262.17 430.537 260.263 427.27 C 256.791 421.217 254.482 414.565 253.451 407.663 C 251.811 399.493 250.732 391.32 251.262 382.884 L 251.262 379.071 C 250.89 378.259 246.81 3.286 248.434 1.366 Z" fill="#599636" style=""/>
  <path d="M 248.434 0.538 C 247.888 -0.556 247.342 0.272 246.794 0.802 C 247.06 6.271 245.154 11.147 242.171 15.802 C 238.89 20.427 234.547 23.972 230.188 27.785 C 205.971 48.753 186.91 74.078 171.643 102.406 C 151.333 140.526 140.865 181.383 137.896 224.395 C 136.538 239.909 142.804 294.656 147.693 310.453 C 161.037 352.386 185.003 387.523 216.048 418.022 C 223.672 425.366 231.828 432.178 240.264 438.723 C 242.717 438.723 242.983 436.537 243.545 434.91 C 244.621 431.435 245.441 427.882 245.998 424.288 L 251.467 383.446 Z" fill="#6cac48" style=""/>
  <path d="M 261.778 450.675 C 262.324 444.425 265.325 439.24 268.59 434.068 C 265.309 432.708 262.873 430.005 260.966 426.99 C 259.323 424.136 257.962 421.127 256.902 418.006 C 253.092 406.568 252.28 394.569 251.185 382.884 L 251.185 375.806 C 249.827 376.901 249.545 386.149 249.545 387.523 C 248.751 399.876 247.111 412.158 244.64 424.288 C 243.827 429.193 243.279 434.082 240.264 438.441 C 240.264 438.99 240.264 439.535 240.531 440.348 C 245.436 454.783 246.781 469.485 247.609 484.47 L 247.609 489.939 C 247.609 496.469 247.342 495.095 252.764 497.281 C 254.95 498.093 257.387 498.376 259.576 500 C 261.216 500 261.483 498.642 261.483 497.547 L 260.668 488.563 L 260.668 463.502 C 260.404 459.127 261.216 454.783 261.762 450.69 Z" fill="#c2bfbf" style=""/>
</svg>