<?xml version="1.0" encoding="utf-8"?>
<svg viewBox="0 0 500 500" xmlns="http://www.w3.org/2000/svg">
  <title>logo</title>
  <g fill="#83CD29" transform="matrix(0.978219, 0, 0, 0.978219, -0.838313, 179.028793)" style="">
    <path d="M471.05 51.611c-1.244 0-2.454.257-3.525.863l-33.888 19.57c-2.193 1.264-3.526 3.65-3.526 6.189v39.069c0 2.537 1.333 4.92 3.526 6.187l8.85 5.109c4.3 2.119 5.885 2.086 7.842 2.086 6.366 0 10.001-3.863 10.001-10.576V81.542c0-.545-.472-.935-1.007-.935h-4.245c-.544 0-1.007.39-1.007.935v38.566c0 2.975-3.1 5.968-8.13 3.453l-9.21-5.396c-.326-.177-.576-.49-.576-.863v-39.07c0-.37.247-.747.576-.935L470.547 57.8a.998.998 0 0 1 1.007 0l33.817 19.498c.322.194.576.553.576.936v39.069c0 .373-.188.755-.504.935l-33.889 19.498c-.29.173-.69.173-1.007 0l-8.706-5.18a.905.905 0 0 0-.863 0c-2.403 1.362-2.855 1.52-5.109 2.302-.555.194-1.398.495.288 1.44l11.368 6.69a6.995 6.995 0 0 0 3.526.936 6.949 6.949 0 0 0 3.525-.935l33.889-19.499c2.193-1.275 3.525-3.65 3.525-6.187v-39.07c0-2.538-1.332-4.92-3.525-6.187l-33.889-19.57c-1.062-.607-2.28-.864-3.525-.864z"/>
    <path d="M480.116 79.528c-9.65 0-15.397 4.107-15.397 10.937 0 7.408 5.704 9.444 14.966 10.36 11.08 1.085 11.943 2.712 11.943 4.893 0 3.783-3.016 5.396-10.144 5.396-8.957 0-10.925-2.236-11.584-6.691-.078-.478-.447-.864-.936-.864h-4.389c-.54 0-1.007.466-1.007 1.008 0 5.703 3.102 12.447 17.916 12.447 10.723 0 16.908-4.209 16.908-11.584 0-7.31-4.996-9.273-15.398-10.648-10.51-1.391-11.512-2.072-11.512-4.533 0-2.032.85-4.75 8.634-4.75 6.954 0 9.524 1.5 10.577 6.189.092.44.48.791.935.791h4.39c.27 0 .532-.166.719-.36.184-.207.314-.44.288-.719-.68-8.074-6.064-11.872-16.909-11.872z"/>
  </g>
  <path d="M 265.062 179.403 C 264.691 179.403 264.328 179.5 264.006 179.684 C 263.355 180.064 262.954 180.76 262.95 181.514 L 262.95 235.357 C 262.95 235.885 262.705 236.359 262.247 236.624 C 261.79 236.89 261.226 236.89 260.769 236.624 L 251.971 231.557 C 250.665 230.801 249.054 230.801 247.748 231.557 L 212.627 251.826 C 211.314 252.585 210.516 254.041 210.516 255.557 L 210.516 296.098 C 210.516 297.612 211.315 298.999 212.627 299.757 L 247.748 320.028 C 249.054 320.786 250.665 320.786 251.971 320.028 L 287.092 299.757 C 288.401 299.004 289.207 297.608 289.204 296.098 L 289.204 195.028 C 289.202 193.483 288.368 192.057 287.022 191.297 L 266.118 179.613 C 265.79 179.43 265.426 179.398 265.062 179.403 Z M 39.133 230.008 C 38.464 230.035 37.834 230.152 37.233 230.5 L 2.111 250.771 C 0.801 251.523 -0.004 252.92 0 254.43 L 0.07 308.838 C 0.07 309.594 0.461 310.298 1.126 310.667 C 1.775 311.058 2.588 311.058 3.238 310.667 L 24.071 298.703 C 25.391 297.918 26.252 296.555 26.252 295.042 L 26.252 269.634 C 26.252 268.118 27.05 266.727 28.364 265.973 L 37.232 260.836 C 37.873 260.463 38.602 260.268 39.344 260.272 C 40.068 260.272 40.811 260.453 41.455 260.836 L 50.324 265.973 C 51.634 266.725 52.44 268.123 52.435 269.634 L 52.435 295.041 C 52.435 296.554 53.306 297.927 54.617 298.702 L 75.45 310.667 C 76.1 311.058 76.912 311.058 77.562 310.667 C 78.215 310.289 78.618 309.592 78.618 308.837 L 78.687 254.43 C 78.696 252.919 77.889 251.52 76.576 250.771 L 41.455 230.5 C 40.861 230.152 40.229 230.036 39.555 230.008 L 39.133 230.008 Z M 354.73 230.5 C 353.996 230.5 353.277 230.686 352.619 231.064 L 317.498 251.334 C 316.189 252.088 315.383 253.484 315.386 254.994 L 315.386 295.534 C 315.386 297.059 316.245 298.441 317.567 299.195 L 352.407 319.043 C 353.694 319.776 355.265 319.832 356.56 319.111 L 377.675 307.358 C 378.345 306.986 378.798 306.292 378.801 305.529 C 378.809 304.772 378.404 304.071 377.745 303.698 L 342.413 283.428 C 341.752 283.05 341.287 282.286 341.287 281.527 L 341.287 268.859 C 341.287 268.101 341.757 267.407 342.413 267.029 L 353.392 260.694 C 354.046 260.315 354.851 260.315 355.504 260.694 L 366.483 267.029 C 367.137 267.405 367.54 268.103 367.539 268.858 L 367.539 278.853 C 367.537 279.608 367.941 280.305 368.595 280.682 C 369.253 281.062 370.05 281.063 370.706 280.682 L 391.751 268.438 C 393.058 267.681 393.862 266.286 393.863 264.777 L 393.863 254.995 C 393.863 253.484 393.061 252.093 391.751 251.334 L 356.842 231.064 C 356.2 230.692 355.471 230.498 354.73 230.501 Z M 249.718 260.765 C 249.902 260.765 250.117 260.81 250.281 260.905 L 262.317 267.873 C 262.644 268.062 262.881 268.411 262.881 268.788 L 262.881 282.723 C 262.881 283.102 262.646 283.45 262.317 283.639 L 250.281 290.607 C 249.955 290.794 249.553 290.794 249.226 290.607 L 237.191 283.639 C 236.863 283.449 236.627 283.102 236.627 282.723 L 236.627 268.788 C 236.627 268.41 236.864 268.064 237.191 267.873 L 249.226 260.906 C 249.373 260.814 249.545 260.765 249.719 260.766 L 249.719 260.765 Z" fill="#404137" style=""/>
  <path d="M 144.637 230.289 C 143.905 230.289 143.181 230.475 142.526 230.852 L 107.405 251.053 C 106.091 251.809 105.293 253.268 105.293 254.783 L 105.293 295.323 C 105.293 296.839 106.092 298.224 107.405 298.983 L 142.526 319.253 C 143.831 320.011 145.443 320.011 146.749 319.253 L 181.87 298.983 C 183.178 298.229 183.983 296.833 183.981 295.323 L 183.981 254.783 C 183.981 253.266 183.182 251.809 181.87 251.053 L 146.749 230.852 C 146.107 230.482 145.378 230.287 144.637 230.289 Z M 354.659 266.466 C 354.519 266.466 354.364 266.466 354.238 266.537 L 347.481 270.478 C 347.225 270.621 347.063 270.889 347.058 271.182 L 347.058 278.924 C 347.058 279.216 347.227 279.483 347.481 279.628 L 354.238 283.499 C 354.491 283.646 354.761 283.646 355.011 283.499 L 361.768 279.627 C 362.023 279.485 362.184 279.217 362.191 278.924 L 362.191 271.181 C 362.184 270.889 362.023 270.621 361.768 270.478 L 355.011 266.536 C 354.886 266.463 354.8 266.467 354.659 266.467 Z" fill="#83CD29" style=""/>
</svg>