<?xml version="1.0" encoding="utf-8"?>
<svg viewBox="0 0 500 500" xmlns="http://www.w3.org/2000/svg">
  <title>logo</title>
  <path d="M 491.204 299.511 C 488.289 290.683 480.653 284.534 470.778 283.058 C 466.122 282.363 460.79 282.659 454.479 283.96 C 443.48 286.23 435.32 287.094 429.365 287.261 C 451.843 249.309 470.121 206.032 480.643 165.293 C 497.658 99.419 488.566 69.409 477.941 55.835 C 449.823 19.907 408.799 0.605 359.308 0.015 C 332.906 -0.308 309.729 4.905 297.638 8.653 C 286.381 6.667 274.277 5.558 261.577 5.353 C 237.769 4.973 216.734 10.163 198.76 20.83 C 188.81 17.465 172.839 12.721 154.396 9.694 C 111.02 2.573 76.059 8.122 50.488 26.187 C 19.523 48.059 5.168 86.061 7.823 139.138 C 8.666 155.99 18.093 207.262 32.935 255.888 C 41.466 283.837 50.562 307.046 59.971 324.878 C 73.315 350.163 87.594 365.053 103.623 370.4 C 112.607 373.393 128.931 375.489 146.1 361.19 C 148.276 363.826 151.179 366.444 155.032 368.877 C 159.926 371.963 165.91 374.485 171.886 375.979 C 193.422 381.363 213.595 380.017 230.806 372.47 C 230.912 375.531 230.994 378.456 231.062 380.981 C 231.176 385.077 231.29 389.094 231.44 392.85 C 232.46 418.247 234.188 437.994 239.307 451.811 C 239.588 452.571 239.966 453.729 240.365 454.958 C 242.919 462.778 247.19 475.87 258.056 486.122 C 269.308 496.743 282.918 500 295.382 500 C 301.634 500 307.599 499.18 312.83 498.059 C 331.478 494.062 352.658 487.974 367.979 466.158 C 382.464 445.535 389.506 414.474 390.78 365.531 C 390.945 364.147 391.097 362.825 391.243 361.566 L 391.547 358.98 L 394.959 359.28 L 395.839 359.338 C 414.832 360.204 438.057 356.177 452.32 349.551 C 463.591 344.321 499.707 325.254 491.204 299.511" style=""/>
  <path d="M 458.727 304.517 C 402.252 316.167 398.368 297.046 398.368 297.046 C 457.996 208.567 482.924 96.255 461.414 68.767 C 402.728 -6.214 301.142 29.248 299.446 30.167 L 298.901 30.266 C 287.743 27.949 275.257 26.57 261.222 26.34 C 235.669 25.923 216.284 33.04 201.575 44.195 C 201.575 44.195 20.355 -30.462 28.784 138.088 C 30.577 173.945 80.178 409.401 139.339 338.283 C 160.963 312.276 181.857 290.288 181.857 290.288 C 192.233 297.181 204.657 300.698 217.68 299.435 L 218.692 298.577 C 218.377 301.805 218.521 304.963 219.096 308.702 C 203.855 325.73 208.335 328.719 177.868 334.992 C 147.038 341.346 165.148 352.656 176.973 355.615 C 191.309 359.198 224.473 364.276 246.881 332.907 L 245.988 336.486 C 251.958 341.27 256.151 367.597 255.449 391.465 C 254.746 415.332 254.277 431.718 258.981 444.517 C 263.688 457.317 268.377 486.115 308.43 477.533 C 341.896 470.361 359.24 451.775 361.653 420.772 C 363.364 398.733 367.24 401.992 367.483 382.286 L 370.592 372.958 C 374.175 343.081 371.161 333.442 391.779 337.926 L 396.792 338.366 C 411.965 339.055 431.828 335.924 443.486 330.506 C 468.587 318.858 483.475 299.407 458.723 304.517 L 458.727 304.517" fill="#336791" style=""/>
  <path d="M 212.182 154.123 C 207.093 153.415 202.484 154.07 200.152 155.836 C 198.842 156.829 198.436 157.98 198.325 158.772 C 198.033 160.87 199.503 163.191 200.407 164.387 C 202.963 167.775 206.696 170.103 210.392 170.616 C 210.927 170.692 211.461 170.726 211.99 170.726 C 218.153 170.726 223.757 165.927 224.25 162.385 C 224.867 157.949 218.428 154.993 212.182 154.125 M 380.782 154.263 C 380.295 150.786 374.109 149.795 368.237 150.612 C 362.373 151.428 356.687 154.075 357.162 157.56 C 357.542 160.27 362.436 164.896 368.227 164.896 C 368.717 164.896 369.211 164.864 369.709 164.793 C 373.575 164.258 376.412 161.802 377.76 160.388 C 379.811 158.23 381 155.826 380.782 154.263" fill="#FFF" style=""/>
  <path d="M 477.52 303.193 C 475.366 296.682 468.435 294.587 456.919 296.964 C 422.728 304.021 410.484 299.133 406.463 296.173 C 433.04 255.686 454.903 206.746 466.697 161.085 C 472.284 139.455 475.37 119.368 475.623 102.995 C 475.902 85.025 472.841 71.819 466.528 63.752 C 441.078 31.232 403.725 13.788 358.51 13.31 C 327.426 12.96 301.163 20.915 296.072 23.152 C 285.35 20.486 273.662 18.849 260.937 18.64 C 237.602 18.262 217.431 23.849 200.731 35.237 C 193.477 32.537 174.731 26.101 151.804 22.408 C 112.169 16.027 80.672 20.862 58.196 36.785 C 31.376 55.786 18.995 89.751 21.393 137.735 C 22.2 153.878 31.399 203.54 45.915 251.1 C 65.022 313.698 85.794 349.135 107.647 356.425 C 110.205 357.278 113.154 357.874 116.407 357.874 C 124.379 357.874 134.153 354.281 144.322 342.056 C 156.724 327.175 169.556 312.658 182.797 298.52 C 191.388 303.13 200.826 305.705 210.479 305.964 C 210.498 306.216 210.523 306.469 210.545 306.72 C 208.884 308.7 207.256 310.709 205.665 312.749 C 198.977 321.239 197.585 323.007 176.056 327.439 C 169.932 328.704 153.667 332.056 153.428 343.457 C 153.169 355.915 172.655 361.146 174.875 361.701 C 182.611 363.638 190.065 364.593 197.173 364.593 C 214.459 364.593 229.672 358.911 241.829 347.918 C 241.455 392.328 243.307 436.088 248.639 449.421 C 253.007 460.336 263.675 487.011 297.374 487.009 C 302.319 487.009 307.762 486.434 313.749 485.15 C 348.92 477.611 364.194 462.066 370.102 427.795 C 373.264 409.479 378.689 365.744 381.241 342.284 C 386.627 343.964 393.56 344.733 401.055 344.731 C 416.688 344.731 434.726 341.41 446.038 336.159 C 458.746 330.257 481.678 315.776 477.52 303.193 Z M 393.763 144.666 C 393.647 151.592 392.694 157.879 391.684 164.442 C 390.596 171.501 389.471 178.798 389.188 187.657 C 388.909 196.278 389.986 205.242 391.027 213.911 C 393.131 231.419 395.29 249.444 386.932 267.23 C 385.544 264.769 384.306 262.226 383.229 259.617 C 382.191 257.099 379.935 253.054 376.811 247.456 C 364.659 225.663 336.203 174.63 350.77 153.806 C 355.109 147.608 366.121 141.235 393.763 144.666 Z M 360.257 27.334 C 400.77 28.228 432.818 43.384 455.507 72.377 C 472.909 94.616 453.746 195.808 398.271 283.106 C 397.713 282.395 397.153 281.689 396.589 280.985 L 395.886 280.107 C 410.222 256.433 407.419 233.009 404.923 212.241 C 403.898 203.719 402.929 195.669 403.176 188.107 C 403.431 180.093 404.49 173.219 405.516 166.573 C 406.775 158.382 408.057 149.907 407.704 139.917 C 407.967 138.868 408.074 137.63 407.935 136.16 C 407.033 126.58 396.095 97.907 373.801 71.956 C 361.606 57.761 343.822 41.876 319.539 31.162 C 329.984 28.997 344.266 26.978 360.257 27.334 Z M 133.561 333.108 C 122.357 346.579 114.62 343.997 112.075 343.15 C 95.497 337.62 76.261 302.58 59.301 247.016 C 44.626 198.937 36.05 150.591 35.37 137.034 C 33.228 94.159 43.621 64.278 66.263 48.22 C 103.11 22.09 163.692 37.73 188.035 45.663 C 187.685 46.008 187.321 46.331 186.975 46.682 C 147.028 87.024 147.976 155.95 148.075 160.164 C 148.071 161.789 148.207 164.091 148.394 167.256 C 149.081 178.85 150.361 200.426 146.943 224.86 C 143.768 247.566 150.767 269.79 166.143 285.835 C 167.721 287.477 169.379 289.042 171.113 290.521 C 164.269 297.851 149.394 314.061 133.561 333.108 Z M 176.248 276.152 C 163.855 263.22 158.226 245.232 160.803 226.797 C 164.411 200.986 163.08 178.506 162.364 166.428 C 162.264 164.738 162.174 163.257 162.123 162.089 C 167.959 156.914 195.002 142.425 214.288 146.844 C 223.088 148.859 228.451 154.852 230.68 165.16 C 242.219 218.527 232.207 240.77 224.163 258.645 C 222.505 262.327 220.939 265.808 219.602 269.408 L 218.565 272.192 C 215.94 279.23 213.498 285.774 211.985 291.987 C 198.81 291.949 185.993 286.321 176.248 276.15 Z M 178.27 348.123 C 174.423 347.162 170.963 345.493 168.933 344.109 C 170.629 343.311 173.646 342.225 178.88 341.146 C 204.207 335.934 208.118 332.253 216.66 321.408 C 218.618 318.921 220.838 316.102 223.912 312.669 L 223.916 312.665 C 228.495 307.538 230.589 308.408 234.387 309.984 C 237.465 311.256 240.464 315.115 241.679 319.361 C 242.255 321.366 242.9 325.172 240.787 328.134 C 222.944 353.117 196.943 352.796 178.27 348.123 Z M 310.817 471.466 C 279.834 478.105 268.863 462.296 261.634 444.223 C 256.968 432.556 254.674 379.942 256.301 321.839 C 256.322 321.066 256.212 320.32 255.999 319.617 C 255.81 318.229 255.519 316.856 255.133 315.512 C 252.714 307.058 246.818 299.986 239.744 297.054 C 236.934 295.89 231.776 293.753 225.578 295.339 C 226.899 289.893 229.191 283.742 231.677 277.082 L 232.72 274.281 C 233.893 271.123 235.367 267.851 236.924 264.387 C 245.342 245.686 256.871 220.071 244.359 162.203 C 239.672 140.528 224.021 129.943 200.295 132.402 C 186.071 133.874 173.058 139.613 166.567 142.904 C 165.171 143.61 163.895 144.294 162.702 144.958 C 164.514 123.12 171.358 82.307 196.96 56.485 C 213.081 40.23 234.549 32.201 260.705 32.634 C 312.244 33.477 345.293 59.926 363.945 81.967 C 380.018 100.959 388.721 120.091 392.195 130.41 C 366.074 127.754 348.309 132.909 339.304 145.785 C 319.712 173.791 350.022 228.147 364.589 254.272 C 367.261 259.059 369.566 263.197 370.292 264.955 C 375.035 276.452 381.177 284.127 385.66 289.729 C 387.035 291.446 388.368 293.111 389.382 294.566 C 381.471 296.847 367.261 302.116 368.556 328.457 C 367.512 341.674 360.085 403.554 356.311 425.417 C 351.33 454.301 340.702 465.059 310.817 471.468 Z M 440.146 323.467 C 432.056 327.221 418.518 330.037 405.658 330.643 C 391.454 331.308 384.223 329.052 382.521 327.663 C 381.724 311.249 387.833 309.534 394.299 307.718 C 395.315 307.434 396.306 307.154 397.263 306.82 C 397.857 307.304 398.509 307.785 399.223 308.256 C 410.639 315.791 431.002 316.604 459.751 310.669 L 460.066 310.607 C 456.188 314.232 449.553 319.097 440.146 323.467 Z" fill="#FFF" style=""/>
</svg>