<?xml version="1.0" encoding="utf-8"?>
<svg viewBox="0 0 500 500" xmlns="http://www.w3.org/2000/svg">
  <defs>
    <linearGradient x1="12.959%" y1="12.039%" x2="79.639%" y2="78.201%" id="a">
      <stop stop-color="#387EB8" offset="0"/>
      <stop stop-color="#366994" offset="1"/>
    </linearGradient>
    <linearGradient x1="19.128%" y1="20.579%" x2="90.742%" y2="88.429%" id="b">
      <stop stop-color="#FFE052" offset="0"/>
      <stop stop-color="#FFC331" offset="1"/>
    </linearGradient>
  </defs>
  <title>logo</title>
  <path d="M 248.189 0 C 120.594 0 128.561 55.333 128.561 55.333 L 128.703 112.659 L 250.464 112.659 L 250.464 129.87 L 80.341 129.87 C 80.341 129.87 -1.307 120.61 -1.307 249.353 C -1.307 378.099 69.957 373.533 69.957 373.533 L 112.488 373.533 L 112.488 313.79 C 112.488 313.79 110.195 242.525 182.615 242.525 L 303.38 242.525 C 303.38 242.525 371.23 243.621 371.23 176.951 L 371.23 66.714 C 371.23 66.714 381.535 0 248.189 0 Z M 181.05 38.551 C 193.152 38.539 202.967 48.354 202.955 60.456 C 202.967 72.557 193.152 82.372 181.05 82.36 C 168.948 82.372 159.133 72.557 159.145 60.456 C 159.133 48.354 168.948 38.539 181.05 38.551 Z" fill="url(#a)" style=""/>
  <path d="M 251.812 500 C 379.407 500 371.441 444.667 371.441 444.667 L 371.299 387.343 L 249.535 387.343 L 249.535 370.132 L 419.659 370.132 C 419.659 370.132 501.307 379.392 501.307 250.646 C 501.307 121.901 430.042 126.467 430.042 126.467 L 387.512 126.467 L 387.512 186.208 C 387.512 186.208 389.805 257.473 317.385 257.473 L 196.619 257.473 C 196.619 257.473 128.77 256.377 128.77 323.049 L 128.77 433.288 C 128.77 433.288 118.467 500 251.81 500 Z M 318.952 461.453 C 306.85 461.465 297.035 451.65 297.047 439.548 C 297.035 427.445 306.848 417.63 318.952 417.642 C 331.053 417.63 340.868 427.445 340.856 439.546 C 340.868 451.648 331.053 461.463 318.952 461.451 Z" fill="url(#b)" style=""/>
</svg>