<?xml version="1.0" encoding="utf-8"?>
<svg viewBox="0 0 500 500" xmlns="http://www.w3.org/2000/svg" xmlns:bx="https://boxy-svg.com">
  <defs>
    <bx:guide x="-22.484" y="-188.951" angle="90"/>
  </defs>
  <g transform="matrix(0.136146, 0, 0, -0.136146, 1.323691, 506.763245)" fill="#000000" stroke="none" style="">
    <path d="M 1689.061 3446.532 C 1131.208 3396.206 639.035 3050.746 403.611 2543.22 C 296.988 2312.914 244.103 2021.192 264.574 1776.386 C 296.134 1391.688 438.583 1070.965 694.479 804.834 C 858.252 635.089 1026.29 519.936 1231.86 436.344 C 1716.356 239.304 2261.415 293.042 2696.438 583.057 C 2791.972 646.179 2864.476 708.447 2958.305 804.834 C 3487.156 1354.157 3539.188 2205.437 3081.988 2823.852 C 3024.838 2900.621 2893.478 3037.951 2816.708 3100.22 C 2500.251 3356.969 2093.377 3482.358 1689.061 3446.532 Z M 1860.511 3297.259 C 1860.511 3279.347 1856.246 3275.935 1834.069 3275.935 L 1807.626 3275.935 L 1813.598 3174.43 L 1819.568 3073.778 L 1793.126 3069.513 C 1778.624 3067.806 1764.976 3067.806 1762.418 3069.513 C 1759.859 3072.071 1758.153 3117.28 1758.153 3171.018 L 1758.153 3267.406 L 1732.563 3267.406 C 1709.533 3267.406 1706.974 3269.964 1706.974 3292.994 L 1706.974 3318.584 L 1783.743 3318.584 C 1859.658 3318.584 1860.511 3318.584 1860.511 3297.259 Z M 2012.343 3300.671 C 2053.286 3275.083 2051.581 3193.196 2010.637 3171.871 L 1990.166 3160.781 L 2013.196 3114.721 L 2036.226 3069.513 L 2111.289 3172.724 C 2170.999 3255.463 2189.764 3275.935 2205.971 3275.935 C 2231.561 3275.935 2232.414 3272.523 2244.355 3128.368 C 2255.444 2986.773 2256.297 2995.303 2234.119 3000.421 C 2204.265 3008.098 2193.176 3020.039 2193.176 3045.629 C 2193.176 3065.248 2188.911 3069.513 2154.792 3077.189 C 2118.966 3085.719 2114.701 3084.866 2100.201 3066.101 C 2085.699 3047.335 2080.582 3046.481 2034.521 3052.453 L 1984.194 3058.423 L 1962.016 3103.631 C 1942.398 3144.575 1938.986 3147.988 1934.721 3129.221 C 1931.309 3118.986 1928.751 3099.366 1928.751 3086.573 C 1928.751 3069.513 1924.486 3062.688 1914.249 3062.688 C 1875.865 3063.541 1874.159 3070.365 1886.101 3199.166 L 1897.189 3321.143 L 1945.809 3316.026 C 1972.253 3314.319 2002.107 3306.643 2012.343 3300.671 Z M 1679.678 3214.52 C 1689.914 3161.635 1700.15 3106.191 1703.561 3091.69 C 1707.826 3068.66 1706.121 3063.541 1689.914 3058.423 C 1675.413 3054.158 1657.501 3066.101 1595.233 3122.398 C 1553.436 3160.781 1519.316 3188.078 1519.316 3183.813 C 1519.316 3178.695 1525.288 3145.428 1532.111 3108.75 C 1545.76 3037.951 1541.495 3026.01 1507.375 3030.275 C 1493.728 3032.834 1487.756 3050.746 1467.285 3152.253 C 1454.49 3217.933 1443.401 3274.229 1443.401 3278.494 C 1442.548 3281.906 1452.783 3284.465 1464.726 3284.465 C 1480.933 3284.465 1509.081 3264.846 1563.672 3214.52 C 1622.528 3160.781 1638.735 3149.693 1635.323 3165.9 C 1618.263 3235.844 1607.175 3301.524 1611.44 3305.789 C 1613.998 3308.349 1625.94 3310.054 1638.735 3310.054 C 1661.766 3310.054 1662.618 3308.349 1679.678 3214.52 Z M 1394.781 3236.698 C 1403.311 3213.668 1400.752 3210.255 1364.926 3195.754 C 1335.072 3183.813 1331.66 3179.548 1336.778 3162.488 C 1344.455 3136.045 1344.455 3136.045 1382.84 3151.399 L 1416.958 3165.046 L 1425.488 3142.869 C 1430.606 3130.928 1434.018 3119.838 1434.018 3118.986 C 1434.018 3117.28 1418.665 3111.309 1399.046 3105.338 C 1368.338 3095.101 1364.926 3091.69 1370.045 3072.071 C 1378.575 3037.951 1386.251 3034.54 1421.223 3049.893 C 1456.196 3063.541 1468.138 3058.423 1468.138 3026.863 C 1468.138 3010.656 1360.661 2970.566 1348.72 2982.508 C 1341.043 2991.038 1270.245 3181.253 1268.538 3198.313 C 1268.538 3205.138 1289.01 3217.933 1318.865 3229.874 C 1380.28 3253.758 1387.957 3254.611 1394.781 3236.698 Z M 2389.362 3207.696 C 2403.864 3200.019 2402.157 3193.196 2363.774 3106.191 L 2321.977 3012.363 L 2351.832 3001.273 C 2379.98 2991.038 2387.657 2975.684 2373.156 2953.506 C 2368.039 2944.976 2355.244 2947.535 2314.3 2965.448 C 2285.299 2978.243 2261.415 2991.891 2261.415 2996.156 C 2261.415 3017.48 2352.684 3216.226 2362.067 3216.226 C 2368.039 3216.226 2380.834 3212.814 2389.362 3207.696 Z M 1225.037 3156.518 C 1241.243 3124.103 1242.097 3124.956 1213.095 3124.956 C 1143.15 3124.956 1124.384 3032.834 1184.093 2985.92 C 1214.8 2962.036 1242.95 2964.595 1273.657 2994.45 C 1287.305 3008.95 1300.1 3020.039 1301.805 3020.039 C 1302.658 3020.039 1308.63 3008.098 1314.6 2994.45 C 1326.542 2964.595 1318.865 2950.095 1279.628 2929.623 C 1184.947 2881.003 1075.764 2973.978 1097.089 3085.719 C 1103.06 3120.691 1149.12 3170.165 1179.828 3176.136 C 1190.917 3177.841 1202.006 3180.401 1205.418 3181.253 C 1208.83 3181.253 1217.36 3171.018 1225.037 3156.518 Z M 2685.349 3045.629 C 2724.587 3021.745 2734.822 2999.568 2716.91 2973.125 C 2699.85 2946.683 2691.32 2945.83 2684.497 2972.272 C 2677.672 2998.715 2636.729 3015.775 2605.168 3005.538 C 2577.873 2996.156 2542.9 2949.241 2542.9 2921.946 C 2542.9 2891.238 2574.46 2857.972 2603.462 2857.972 C 2632.464 2857.972 2633.317 2856.266 2614.552 2828.117 C 2598.345 2803.38 2585.55 2801.675 2550.577 2819.588 C 2492.574 2850.295 2472.955 2938.153 2511.34 2995.303 C 2554.842 3059.276 2628.199 3080.601 2685.349 3045.629 Z M 942.698 2983.361 C 950.375 2972.272 946.11 2964.595 922.227 2944.123 C 892.372 2919.387 892.372 2919.387 908.579 2901.475 L 924.785 2883.561 L 950.375 2905.74 C 977.67 2928.77 988.759 2928.77 1001.554 2907.445 C 1008.378 2897.21 1004.113 2888.68 982.789 2869.913 L 955.493 2845.177 L 976.817 2824.705 L 998.142 2805.087 L 1028.85 2828.117 C 1058.704 2851.148 1059.557 2851.148 1071.499 2835.795 C 1078.323 2827.265 1083.44 2817.881 1084.294 2815.323 C 1084.294 2812.763 1062.969 2793.998 1037.38 2772.673 C 1010.937 2751.348 970.847 2712.111 946.963 2684.815 L 903.46 2636.195 L 864.224 2669.462 C 842.046 2688.228 799.397 2726.612 768.689 2754.76 L 713.245 2805.087 L 732.011 2824.705 L 750.776 2844.325 L 826.692 2774.38 L 903.46 2704.435 L 924.785 2732.583 L 946.11 2759.878 L 965.729 2742.818 C 985.347 2725.758 985.347 2725.758 973.405 2742.818 C 966.582 2752.202 930.757 2793.998 894.931 2834.941 C 858.252 2876.738 828.397 2914.268 828.397 2917.681 C 828.397 2928.77 916.255 3003.833 925.639 3000.421 C 929.904 2998.715 937.58 2991.038 942.698 2983.361 Z M 1987.606 2955.213 C 2216.207 2921.946 2422.629 2817.028 2589.815 2649.843 C 2747.617 2491.187 2844.005 2313.767 2889.213 2094.549 C 2911.39 1987.926 2911.39 1783.209 2889.213 1676.586 C 2870.447 1587.023 2832.915 1475.281 2797.09 1405.336 C 2768.088 1346.48 2701.555 1241.563 2688.762 1233.886 C 2678.525 1227.062 2670.848 1252.652 2635.875 1418.131 C 2612.845 1523.048 2610.287 1551.196 2614.552 1621.141 C 2617.11 1665.498 2626.493 1731.177 2635.875 1766.149 C 2646.112 1801.122 2653.788 1844.624 2653.788 1863.389 L 2653.788 1896.656 L 2602.61 1890.686 C 2559.96 1885.568 2551.43 1887.274 2551.43 1897.509 C 2551.43 1918.834 2602.61 2100.52 2616.257 2127.816 C 2623.082 2141.464 2628.199 2155.111 2628.199 2157.67 C 2628.199 2164.494 2423.482 2165.347 2423.482 2158.522 C 2423.482 2155.964 2433.719 2097.961 2446.513 2028.869 C 2459.307 1959.777 2466.985 1900.921 2464.425 1897.509 C 2456.749 1890.686 2407.275 1906.892 2312.594 1949.541 C 2268.239 1970.013 2222.177 1988.779 2211.089 1992.191 L 2190.617 1998.162 L 2198.294 1944.424 C 2207.677 1877.891 2205.117 1804.534 2193.176 1741.413 C 2173.557 1643.319 2167.586 1643.319 2146.262 1740.559 C 2127.496 1825.858 2118.966 2126.962 2132.614 2227.615 C 2141.997 2295.854 2158.204 2372.622 2171.851 2408.448 C 2176.969 2420.39 2172.704 2422.949 2143.702 2422.949 C 2114.701 2422.949 2108.731 2425.507 2106.171 2442.567 C 2104.466 2457.922 2097.641 2462.187 2071.199 2463.892 C 2043.051 2466.452 2037.932 2469.863 2033.667 2492.04 C 2029.403 2515.924 2027.696 2516.777 1974.811 2516.777 L 1921.073 2516.777 L 1915.103 2486.923 C 1909.984 2460.48 1906.573 2456.215 1876.718 2451.95 C 1846.864 2446.832 1844.304 2444.274 1848.569 2426.36 C 1853.688 2408.448 1851.128 2405.889 1827.245 2405.889 C 1794.831 2405.889 1794.831 2405.036 1818.715 2286.471 C 1845.158 2154.259 1843.451 2057.871 1814.45 1923.952 C 1801.656 1863.389 1788.008 1809.651 1783.743 1806.239 C 1780.331 1802.828 1770.948 1823.299 1761.565 1853.154 C 1738.534 1932.482 1740.24 2099.667 1764.976 2175.582 C 1788.861 2246.381 1788.861 2247.234 1757.3 2240.41 C 1713.798 2231.88 1582.438 2250.645 1527.846 2273.676 C 1499.698 2285.619 1471.55 2295.001 1464.726 2295.001 C 1454.49 2295.001 1451.931 2258.322 1448.52 2071.519 C 1445.96 1888.126 1442.548 1837.801 1429.753 1798.563 C 1421.223 1771.268 1411.84 1751.649 1408.428 1753.354 C 1402.458 1756.766 1389.663 1849.742 1378.575 1970.866 C 1371.75 2041.664 1385.398 2207.996 1412.693 2414.419 C 1424.635 2503.982 1432.312 2580.752 1429.753 2585.017 C 1427.195 2590.134 1404.163 2593.547 1380.28 2593.547 L 1335.925 2594.399 L 1312.895 2644.725 C 1300.1 2672.873 1286.452 2695.905 1281.333 2695.905 C 1276.215 2695.905 1265.127 2672.02 1256.597 2643.02 C 1239.537 2587.575 1236.978 2585.017 1184.947 2564.545 C 1154.239 2552.603 1152.533 2549.19 1152.533 2515.072 C 1152.533 2494.6 1162.768 2392.242 1175.563 2286.471 C 1205.418 2026.311 1205.418 1868.508 1174.71 1694.498 C 1162.768 1624.554 1150.827 1565.698 1149.12 1563.991 C 1138.885 1553.756 1109.883 1712.411 1109.883 1775.533 C 1109.883 1843.771 1131.208 1988.779 1155.945 2086.872 L 1175.563 2165.347 L 1095.382 2171.317 C 1013.495 2177.289 926.492 2171.317 904.314 2158.522 C 894.078 2151.699 892.372 2096.255 891.519 1811.358 C 890.666 1624.554 886.401 1448.838 882.136 1420.69 L 873.606 1369.511 L 843.752 1433.485 C 772.101 1584.463 737.129 1761.031 746.511 1932.482 C 760.159 2215.674 864.224 2451.097 1062.969 2648.99 C 1310.335 2896.356 1641.294 3006.391 1987.606 2955.213 Z M 2826.945 2914.268 C 2863.623 2899.768 2899.448 2856.266 2906.273 2819.588 C 2913.096 2780.35 2881.536 2715.523 2842.298 2689.933 C 2798.797 2660.932 2763.823 2657.52 2719.468 2677.138 C 2617.11 2722.347 2626.493 2861.383 2734.822 2910.005 C 2775.765 2928.77 2791.12 2929.623 2826.945 2914.268 Z M 712.392 2761.585 C 726.892 2750.495 727.746 2748.79 714.097 2729.171 L 700.45 2707.847 L 781.484 2649.843 C 825.839 2618.283 862.517 2589.282 862.517 2586.722 C 861.664 2577.34 840.34 2550.897 833.516 2550.897 C 830.104 2550.897 791.719 2576.487 749.07 2607.194 L 670.596 2662.638 L 656.094 2644.725 C 644.152 2630.225 638.182 2628.518 623.681 2636.195 C 614.299 2641.313 606.621 2648.99 606.621 2653.255 C 606.621 2663.491 684.244 2772.673 691.92 2772.673 C 694.479 2772.673 703.862 2767.555 712.392 2761.585 Z M 2998.395 2728.318 C 3005.218 2718.082 3009.483 2706.993 3006.925 2703.582 C 3005.218 2700.17 2971.953 2675.433 2932.715 2648.137 C 2894.33 2621.695 2859.358 2596.958 2855.093 2592.693 C 2850.828 2589.282 2856.8 2573.927 2867.035 2558.574 C 2886.653 2532.132 2886.653 2531.278 2871.3 2520.189 C 2862.77 2513.365 2852.535 2508.247 2849.122 2508.247 C 2839.74 2508.247 2778.325 2602.075 2784.295 2608.047 C 2796.237 2619.135 2973.658 2745.378 2979.63 2746.23 C 2983.041 2747.083 2991.571 2738.553 2998.395 2728.318 Z M 621.122 2617.43 C 629.652 2610.605 628.799 2604.635 618.564 2589.282 C 605.769 2569.662 606.621 2568.81 695.332 2520.189 C 744.805 2492.894 785.749 2469.01 785.749 2466.452 C 785.749 2463.892 778.925 2452.804 770.395 2442.567 L 755.894 2424.655 L 674.861 2470.715 C 630.506 2495.452 589.562 2516.777 583.591 2516.777 C 578.473 2516.777 570.796 2509.1 568.237 2499.717 C 562.266 2480.099 544.354 2477.54 530.706 2494.6 C 519.617 2507.395 524.734 2521.895 569.943 2600.37 C 590.414 2634.49 595.532 2637.048 621.122 2617.43 Z M 3094.783 2579.045 C 3105.871 2561.985 3102.46 2559.427 3017.161 2513.365 C 2966.835 2486.07 2926.745 2462.187 2926.745 2459.627 C 2926.745 2457.922 2933.568 2444.274 2941.245 2430.625 C 2954.893 2406.742 2954.893 2405.889 2939.538 2393.094 C 2913.096 2373.475 2926.745 2377.74 3036.78 2422.949 C 3093.93 2446.832 3143.403 2465.598 3147.668 2465.598 C 3151.08 2465.598 3164.728 2440.009 3176.669 2408.448 C 3197.994 2354.71 3198.846 2349.592 3185.199 2340.209 C 3163.021 2323.149 3157.903 2326.562 3143.403 2363.24 C 3129.755 2398.212 3120.372 2403.33 3097.341 2388.829 C 3087.106 2382.005 3086.253 2376.887 3096.488 2349.592 C 3106.725 2320.59 3106.725 2316.325 3092.223 2306.09 C 3070.046 2289.884 3065.781 2291.589 3054.692 2324.855 C 3042.75 2361.534 3035.926 2365.799 3008.631 2353.857 C 2983.041 2341.915 2982.188 2341.062 2999.248 2300.119 C 3012.043 2269.411 3012.043 2269.411 2989.865 2260.882 C 2977.07 2255.764 2965.981 2253.204 2965.128 2254.057 C 2964.275 2255.764 2953.187 2283.912 2940.392 2316.325 C 2927.597 2349.592 2903.713 2400.772 2887.507 2430.625 C 2871.3 2460.48 2859.358 2486.07 2861.065 2487.775 C 2872.153 2499.717 3069.193 2601.223 3075.163 2599.517 C 3079.428 2597.812 3088.811 2589.282 3094.783 2579.045 Z M 711.539 2417.83 C 749.07 2412.713 749.924 2411.86 741.394 2387.977 C 734.569 2368.357 727.746 2364.092 703.009 2361.534 C 674.861 2358.975 670.596 2355.563 658.654 2322.297 C 645.859 2286.471 645.859 2284.765 664.624 2271.117 L 683.391 2256.617 L 666.331 2184.112 C 656.947 2144.022 646.712 2103.079 645.006 2092.843 C 642.447 2080.901 633.917 2073.224 625.387 2073.224 C 607.474 2074.077 402.758 2120.992 397.639 2125.257 C 395.934 2127.816 400.199 2156.817 407.876 2190.937 C 418.111 2236.145 424.936 2252.352 435.171 2252.352 C 463.319 2252.352 469.291 2240.41 461.614 2205.437 C 453.937 2170.465 459.908 2158.522 488.056 2158.522 C 497.439 2158.522 503.411 2168.759 507.676 2192.642 C 511.941 2221.644 516.206 2226.762 534.118 2226.762 C 561.414 2226.762 564.826 2218.232 554.589 2180.701 C 549.471 2162.787 546.912 2147.434 548.619 2145.729 C 550.324 2144.875 563.119 2140.611 578.473 2138.051 C 604.916 2132.081 605.769 2132.934 612.592 2168.759 C 619.416 2201.172 622.829 2205.437 641.594 2202.879 C 657.801 2201.172 648.417 2213.114 593.827 2262.587 C 459.908 2384.564 461.614 2382.859 466.732 2404.183 C 471.849 2422.095 475.261 2422.949 572.502 2422.949 C 627.094 2422.949 690.214 2420.39 711.539 2417.83 Z M 3181.786 2264.294 C 3236.378 2242.969 3266.233 2181.554 3250.879 2123.551 C 3245.761 2106.491 3236.378 2087.726 3228.701 2080.901 C 3218.466 2072.371 3212.495 2073.224 3197.994 2087.726 C 3181.786 2104.785 3181.786 2106.491 3194.581 2125.257 C 3213.348 2153.405 3211.641 2173.024 3186.905 2196.907 C 3141.696 2242.969 3037.633 2207.144 3037.633 2145.729 C 3037.633 2130.374 3074.311 2090.284 3088.811 2090.284 C 3094.783 2090.284 3097.341 2101.372 3095.635 2118.432 C 3093.076 2142.316 3095.635 2145.729 3114.401 2148.287 C 3134.873 2150.846 3137.431 2146.581 3146.815 2102.226 C 3151.933 2075.784 3154.491 2050.194 3151.933 2046.782 C 3144.256 2033.987 3080.281 2038.252 3049.575 2052.752 C 2998.395 2077.489 2977.07 2139.757 3001.807 2195.202 C 3020.573 2236.997 3034.22 2250.645 3077.723 2265.999 C 3120.372 2280.5 3141.696 2280.5 3181.786 2264.294 Z M 427.494 2051.899 C 436.024 2041.664 436.024 2035.693 429.201 2028.869 C 415.553 2015.221 416.406 1992.191 430.906 1980.249 C 444.554 1968.307 462.467 1982.808 482.939 2022.046 C 499.998 2055.312 537.529 2068.959 575.914 2056.164 C 637.329 2035.693 653.536 1964.896 606.621 1917.981 L 581.032 1892.391 L 564.826 1912.011 C 549.471 1930.776 549.471 1931.629 571.649 1950.394 C 589.562 1966.601 592.121 1972.572 584.444 1985.367 C 569.091 2010.956 541.794 2009.251 524.734 1981.954 C 482.939 1914.569 441.142 1900.921 396.787 1940.159 C 368.638 1964.042 364.373 2007.544 387.404 2042.517 C 404.464 2068.107 412.141 2069.812 427.494 2051.899 Z M 3276.468 1969.161 C 3276.468 1944.424 3279.028 1915.422 3281.586 1905.186 C 3286.704 1888.126 3284.146 1885.568 3260.261 1885.568 C 3234.673 1885.568 3233.819 1886.421 3233.819 1923.952 C 3233.819 1960.631 3232.966 1962.336 3208.23 1962.336 C 3183.493 1962.336 3182.64 1961.483 3182.64 1919.687 C 3182.64 1880.449 3180.934 1877.038 3162.168 1877.038 C 3145.108 1877.038 3140.843 1882.156 3136.579 1915.422 C 3130.608 1952.954 3129.755 1953.806 3100.753 1953.806 L 3070.046 1953.806 L 3073.458 1913.716 C 3076.016 1874.479 3075.163 1872.773 3052.986 1870.214 C 3031.661 1867.654 3029.103 1870.214 3029.103 1891.538 C 3029.103 1904.333 3026.543 1935.041 3023.985 1959.777 L 3018.013 2004.132 L 3072.605 2007.544 C 3102.46 2009.251 3160.463 2010.956 3202.259 2011.809 L 3276.468 2013.516 L 3276.468 1969.161 Z M 2206.824 1620.289 C 2316.006 1568.256 2380.834 1436.896 2380.834 1267.153 C 2380.834 1054.759 2285.299 912.31 2130.055 890.985 C 2013.196 874.779 1899.749 958.372 1851.128 1096.555 C 1811.891 1209.15 1822.127 1383.158 1874.159 1488.076 C 1940.692 1621.141 2084.847 1679.145 2206.824 1620.289 Z M 1747.918 1563.991 L 1750.476 1501.723 L 1631.911 1501.723 L 1514.199 1501.723 L 1501.405 1448.838 L 1488.61 1395.1 L 1544.906 1394.248 C 1612.293 1393.395 1651.53 1377.188 1701.003 1331.98 C 1777.771 1261.182 1801.656 1140.91 1758.153 1042.817 C 1690.768 889.28 1469.843 839.807 1317.158 944.724 C 1292.423 960.93 1271.951 978.843 1271.951 984.814 C 1271.951 989.932 1282.187 1019.787 1294.128 1052.2 L 1316.306 1110.203 L 1352.985 1076.083 C 1387.103 1045.377 1455.343 1015.522 1492.875 1015.522 C 1582.438 1015.522 1652.383 1102.527 1631.058 1184.413 C 1620.823 1220.238 1579.026 1265.447 1542.348 1279.095 C 1498.845 1296.153 1427.195 1290.183 1381.133 1267.153 C 1357.25 1255.21 1335.925 1246.681 1334.218 1249.24 C 1330.807 1252.652 1401.605 1582.758 1412.693 1619.436 C 1416.105 1627.966 1453.637 1629.671 1580.731 1627.966 L 1745.358 1625.406 L 1747.918 1563.991 Z M 1399.046 787.774 L 1423.783 747.684 L 1448.52 787.774 C 1468.991 822.747 1475.815 827.864 1499.698 827.864 C 1515.052 827.864 1527.846 826.159 1527.846 823.6 C 1527.846 821.04 1510.787 792.892 1489.463 759.625 C 1454.49 704.182 1451.078 695.652 1451.078 644.472 L 1451.078 589.029 L 1425.488 589.029 L 1399.898 589.029 L 1399.898 641.061 C 1399.898 687.122 1396.487 698.211 1363.22 749.39 C 1342.748 780.95 1323.983 811.657 1319.718 817.629 C 1315.453 825.305 1322.277 827.864 1343.602 827.864 C 1370.897 827.864 1376.868 823.6 1399.046 787.774 Z M 1688.208 804.834 C 1685.649 782.656 1682.238 780.95 1645.559 778.392 C 1608.88 775.832 1604.616 774.127 1604.616 754.507 C 1604.616 735.742 1608.028 734.036 1648.118 734.036 C 1688.208 734.036 1690.768 732.33 1688.208 715.27 C 1685.649 698.211 1679.678 695.652 1645.559 693.092 C 1605.468 690.534 1604.616 689.681 1604.616 660.679 L 1604.616 631.677 L 1647.265 631.677 C 1687.355 631.677 1689.914 629.972 1689.914 610.352 C 1689.914 589.029 1689.061 589.029 1621.675 589.029 L 1553.436 589.029 L 1553.436 708.447 L 1553.436 827.864 L 1622.528 827.864 L 1690.768 827.864 L 1688.208 804.834 Z M 1896.336 708.447 L 1944.957 589.029 L 1915.956 589.029 C 1892.072 589.029 1886.101 593.294 1878.424 614.617 C 1870.747 638.502 1867.336 640.207 1827.245 640.207 C 1788.008 640.207 1782.889 637.649 1770.948 614.617 C 1760.711 594.999 1752.183 589.029 1731.711 589.029 C 1717.21 589.029 1706.974 592.441 1708.68 596.705 C 1710.386 601.824 1732.563 654.709 1758.153 716.124 C 1800.803 816.775 1806.773 827.864 1826.392 827.864 C 1846.011 827.864 1851.981 816.775 1896.336 708.447 Z M 2081.434 818.482 C 2111.289 808.245 2124.937 788.627 2124.937 755.36 C 2124.937 726.359 2110.436 700.769 2090.817 693.092 C 2076.317 687.975 2077.169 682.857 2107.877 642.767 C 2126.643 618.882 2141.997 596.705 2141.997 594.146 C 2141.997 591.587 2129.202 589.029 2112.996 589.029 C 2087.406 589.029 2080.582 594.146 2055.846 633.384 L 2026.844 678.592 L 2024.284 633.384 C 2021.726 590.734 2020.873 589.029 1996.136 589.029 L 1971.399 589.029 L 1971.399 708.447 L 1971.399 827.864 L 2013.196 827.864 C 2035.374 827.864 2066.081 823.6 2081.434 818.482 Z M 2302.359 814.217 C 2321.124 801.422 2321.124 799.716 2307.476 784.362 C 2296.387 772.42 2290.417 770.714 2281.887 777.539 C 2265.68 790.334 2232.414 783.509 2229.001 765.597 C 2226.442 755.36 2236.679 746.831 2263.974 734.889 C 2324.536 708.447 2342.449 672.621 2316.859 624.001 C 2292.975 576.234 2216.207 567.704 2176.969 608.647 L 2159.057 629.119 L 2176.116 644.472 C 2192.322 658.974 2194.029 658.974 2208.529 646.179 C 2228.149 628.266 2255.444 627.412 2269.092 643.619 C 2284.446 662.385 2272.504 676.886 2224.737 699.917 C 2182.94 720.389 2180.381 722.947 2177.822 756.214 C 2175.264 786.069 2178.676 794.599 2198.294 809.952 C 2225.589 831.277 2275.062 833.835 2302.359 814.217 Z" style="fill: rgb(0, 139, 191);"/>
    <path d="M 1945.808 3234.137 C 1945.808 3210.253 1949.22 3199.165 1957.75 3199.165 C 1991.87 3199.165 1998.693 3261.433 1965.427 3265.697 C 1947.515 3268.257 1945.808 3264.845 1945.808 3234.137 Z" style="fill: rgb(0, 139, 191);"/>
    <path d="M 2161.613 3157.368 L 2142.848 3124.102 L 2165.878 3119.837 C 2178.673 3117.278 2189.763 3116.425 2190.615 3117.278 C 2192.321 3118.13 2189.763 3135.19 2186.35 3154.809 L 2180.38 3189.782 L 2161.613 3157.368 Z" style="fill: rgb(0, 139, 191);"/>
    <path d="M 2521.574 2517.629 C 2519.015 2511.658 2513.897 2486.068 2511.338 2459.626 C 2506.221 2416.123 2507.926 2411.858 2520.721 2416.976 C 2529.251 2420.388 2539.486 2422.947 2544.604 2422.947 C 2550.576 2422.947 2551.429 2438.301 2548.016 2468.156 C 2541.193 2514.216 2531.809 2532.982 2521.574 2517.629 Z" style="fill: rgb(0, 139, 191);"/>
    <path d="M 2513.044 2392.239 C 2466.13 2381.151 2290.415 2325.706 2282.738 2319.736 C 2272.501 2310.353 2267.384 2310.353 2536.928 2308.646 C 2663.169 2307.794 2768.087 2310.353 2769.793 2313.765 C 2783.441 2335.089 2561.664 2403.328 2513.044 2392.239 Z" style="fill: rgb(0, 139, 191);"/>
    <path d="M 2358.653 2248.085 C 2361.213 2238.703 2363.771 2225.054 2363.771 2218.231 C 2363.771 2207.141 2387.655 2205.436 2525.839 2205.436 L 2687.906 2205.436 L 2696.436 2230.173 C 2700.701 2243.82 2704.966 2257.468 2704.966 2260.026 C 2704.966 2262.586 2626.491 2265.145 2529.251 2265.145 C 2358.653 2265.145 2354.389 2265.145 2358.653 2248.085 Z" style="fill: rgb(0, 139, 191);"/>
    <path d="M 2734.821 2846.029 C 2694.731 2805.937 2697.289 2741.964 2739.939 2726.611 C 2790.264 2709.551 2849.974 2749.641 2849.974 2800.82 C 2849.974 2862.235 2779.176 2889.531 2734.821 2846.029 Z" style="fill: rgb(0, 139, 191);"/>
    <path d="M 570.795 2350.443 C 600.649 2325.706 611.738 2324.001 618.561 2342.766 C 627.091 2364.091 616.856 2371.768 580.177 2371.768 L 545.205 2371.768 L 570.795 2350.443 Z" style="fill: rgb(0, 139, 191);"/>
    <path d="M 2037.078 1481.25 C 1997.84 1442.866 1979.075 1385.716 1973.957 1292.74 C 1964.573 1133.232 2020.018 1019.784 2107.876 1019.784 C 2149.672 1019.784 2183.791 1050.492 2211.94 1112.761 C 2229 1151.144 2231.558 1169.911 2231.558 1267.151 C 2231.558 1365.244 2229 1383.157 2211.087 1423.247 C 2183.791 1483.809 2151.378 1510.252 2103.611 1510.252 C 2072.05 1510.252 2060.961 1505.134 2037.078 1481.25 Z" style="fill: rgb(0, 139, 191);"/>
    <path d="M 1810.183 716.121 C 1798.242 681.149 1797.388 682.855 1825.537 682.855 C 1850.273 682.855 1850.273 683.708 1840.891 712.71 C 1829.802 749.388 1822.125 750.241 1810.183 716.121 Z" style="fill: rgb(0, 139, 191);"/>
    <path d="M 2022.577 751.094 C 2022.577 716.121 2029.401 711.003 2057.55 725.504 C 2087.405 741.711 2069.491 785.213 2031.96 785.213 C 2026.842 785.213 2022.577 769.86 2022.577 751.094 Z" style="fill: rgb(0, 139, 191);"/>
  </g>
</svg>