<?xml version="1.0" encoding="utf-8"?>
<svg viewBox="0 0 500 500" xmlns="http://www.w3.org/2000/svg">
  <g fill-rule="evenodd" clip-rule="evenodd" transform="matrix(1, 0, 0, 1, 0, -74.615807)">
    <path d="M 0 400.657 C 0 400.657 5.59 384.876 8.219 370.079 L 15.784 369.089 C 15.784 369.089 18.746 393.749 46.692 393.749 C 74.641 393.749 78.587 378.295 78.587 368.762 C 78.587 359.228 64.448 349.029 42.089 340.812 C 19.73 332.593 1.972 318.453 1.972 290.831 C 1.972 263.215 25.975 240.853 62.803 240.853 C 62.803 240.853 77.27 240.196 95.029 244.799 L 237.077 244.799 C 237.077 244.799 234.118 255.65 234.448 270.45 C 234.448 270.45 213.731 263.542 184.467 268.805 L 184.467 407.564 L 144.677 407.564 L 144.677 268.142 C 144.677 268.142 127.251 265.514 97.985 268.47 C 97.985 268.47 82.861 258.279 65.432 258.279 C 48.004 258.279 35.508 263.542 35.508 278.993 C 35.508 294.444 57.867 301.682 72.991 308.26 C 88.118 314.835 114.093 327.003 114.093 357.581 C 114.093 388.159 86.144 411.175 46.029 411.175 C 13.482 411.175 0 400.657 0 400.657 Z M 445.214 326.015 C 486.643 318.781 482.7 280.313 482.7 280.313 C 482.7 243.155 439.953 244.802 439.953 244.802 L 361.244 244.802 L 361.244 401.721 L 299.425 244.799 L 270.164 244.799 L 193.878 407.564 L 222.155 407.564 L 243.808 358.571 L 296.716 358.571 L 314.882 407.564 L 404.772 407.564 L 404.772 333.577 L 448.708 407.564 L 500 407.564 C 474.23 374.679 445.214 326.015 445.214 326.015 Z M 111.14 223.425 L 0 223.425 C 0 223.425 30.874 181.908 151.257 158.977 C 261.737 137.933 343.94 142.536 343.94 142.536 L 343.94 147.139 C 343.94 147.139 241.35 149.111 185.451 168.183 C 129.553 187.256 121.661 205.669 111.14 223.425 Z M 426.798 88.825 L 443.971 141.659 L 499.525 141.659 L 454.582 174.317 L 471.746 229.283 L 426.798 194.5 L 381.859 229.285 L 399.022 174.32 L 354.074 141.665 L 409.629 141.662 L 426.798 88.825 Z" style=""/>
    <path fill="#fff" d="M 252.349 342.044 L 273.128 295.022 L 290.56 342.044 L 252.349 342.044 Z M 403.344 317.711 L 403.344 262.472 C 403.344 262.472 441.157 256.879 441.157 286.473 C 441.157 313.765 428.004 317.711 403.344 317.711 Z" style=""/>
  </g>
</svg>