<?xml version="1.0" encoding="utf-8"?>
<svg viewBox="0 0 500 500" xmlns="http://www.w3.org/2000/svg">
  <title>logo</title>
  <path d="M 157.245 453.252 C 345.933 453.252 449.12 296.874 449.12 161.268 C 449.12 156.827 449.029 152.407 448.829 148.004 C 468.908 133.471 486.235 115.476 500 94.864 C 481.619 103.039 461.839 108.541 441.089 111.021 C 462.269 98.317 478.528 78.219 486.2 54.261 C 466.063 66.211 444.033 74.635 421.06 79.171 C 402.34 59.224 375.69 46.748 346.18 46.748 C 289.529 46.748 243.59 92.705 243.59 149.355 C 243.59 157.409 244.492 165.24 246.252 172.754 C 160.993 168.462 85.391 127.627 34.795 65.535 C 25.682 81.195 20.888 98.995 20.904 117.114 C 20.904 152.718 39.014 184.147 66.555 202.536 C 50.264 202.038 34.331 197.636 20.096 189.7 C 20.08 190.131 20.08 190.551 20.08 191.011 C 20.08 240.709 55.44 282.204 102.379 291.607 C 93.563 294.008 84.466 295.223 75.329 295.218 C 68.731 295.218 62.3 294.568 56.05 293.368 C 69.11 334.142 106.98 363.814 151.879 364.643 C 116.768 392.173 72.54 408.57 24.47 408.57 C 16.293 408.577 8.122 408.103 0 407.148 C 45.4 436.259 99.309 453.245 157.25 453.245" fill="#1da1f2" fill-rule="nonzero" style=""/>
</svg>