<?xml version="1.0" encoding="utf-8"?>
<svg viewBox="0 0 500 500" xmlns="http://www.w3.org/2000/svg">
  <title>logo</title>
  <path d="M 463.08 0 L 36.94 0 C 16.54 0 0 16.04 0 35.82 L 0 464.16 C 0 483.961 16.54 500 36.94 500 L 463.08 500 C 483.48 500 500 483.941 500 464.16 L 500 35.82 C 500 16.04 483.48 0 463.08 0 Z" fill="#6fda44" style=""/>
  <path d="M 366.92 290.74 C 347.24 290.74 328.82 282.4 312.06 268.82 L 316.14 249.661 L 316.32 248.96 C 319.96 228.561 331.48 194.3 366.92 194.3 C 393.5 194.3 415.12 215.96 415.12 242.56 C 415.04 269.08 393.42 290.74 366.92 290.74 Z M 366.92 145.4 C 321.64 145.4 286.54 174.86 272.28 223.3 C 250.479 190.56 234 151.26 224.34 118.16 L 175.62 118.16 L 175.62 245.121 C 175.62 270.14 155.24 290.54 130.24 290.54 C 105.24 290.54 84.88 270.14 84.88 245.121 L 84.88 118.16 L 36.14 118.16 L 36.14 245.121 C 35.96 297.12 78.239 339.8 130.16 339.8 C 182.079 339.8 224.36 297.12 224.36 245.121 L 224.36 223.82 C 233.84 243.601 245.44 263.56 259.54 281.32 L 229.68 421.86 L 279.58 421.86 L 301.2 319.92 C 320.16 332.08 341.96 339.701 366.96 339.701 C 420.4 339.701 463.9 295.861 463.9 242.361 C 463.86 188.96 420.36 145.4 366.92 145.4 Z" fill="#fff" style=""/>
</svg>